<svg width="260" height="220" viewBox="0 0 68.792 58.208" version="1.1" id="svg5" xmlns="http://www.w3.org/2000/svg"><g id="layer1" transform="translate(-15.875 -5.292)"><g id="g18026"><path style="fill:#f0b5b5;fill-opacity:1;stroke:none;stroke-width:.2px;stroke-linecap:round" id="rect17136" d="M23.813 42.333h13.229v13.229H23.813z"/><path style="fill:#fae7e7;fill-opacity:1;stroke:none;stroke-width:.2px;stroke-linecap:round" id="rect18022" d="M37.042 29.104h13.229v13.229H37.042z"/><path style="fill:#fae7e7;fill-opacity:1;stroke:none;stroke-width:.2px;stroke-linecap:round" id="rect18028" d="M50.271 42.333H63.5v13.229H50.271z"/><path style="fill:#fae7e7;fill-opacity:1;stroke:none;stroke-width:.2px;stroke-linecap:round" id="rect18030" d="M63.5 29.104h13.229v13.229H63.5z"/><path style="fill:#fae7e7;fill-opacity:1;stroke:none;stroke-width:.2px;stroke-linecap:round" id="rect18032" d="M50.271 15.875H63.5v13.229H50.271z"/><path style="fill:#fae7e7;fill-opacity:1;stroke:none;stroke-width:.2px;stroke-linecap:round" id="rect18034" d="M23.812 15.875h13.229v13.229H23.812z"/><path style="fill:#cfdcf5;fill-opacity:1;stroke:none;stroke-width:.2px;stroke-linecap:round" id="rect18047" d="M23.813 29.104h13.229v13.229H23.813z"/><path style="fill:#cfdcf5;fill-opacity:1;stroke:none;stroke-width:.2px;stroke-linecap:round" id="rect18049" d="M37.042 15.875h13.229v13.229H37.042z"/><path style="fill:#cfdcf5;fill-opacity:1;stroke:none;stroke-width:.2px;stroke-linecap:round" id="rect18051" d="M37.042 42.333h13.229v13.229H37.042z"/><path style="fill:#a4bbeb;fill-opacity:1;stroke:none;stroke-width:.2px;stroke-linecap:round" id="rect18053" d="M50.271 29.104H63.5v13.229H50.271z"/><path style="fill:#cfdcf5;fill-opacity:1;stroke:none;stroke-width:.2px;stroke-linecap:round" id="rect18055" d="M63.5 42.333h13.229v13.229H63.5z"/><path style="fill:#cfdcf5;fill-opacity:1;stroke:none;stroke-width:.2px;stroke-linecap:round" id="rect18057" d="M63.5 15.875h13.229v13.229H63.5z"/><path style="fill:#a4bbeb;fill-opacity:1;stroke:none;stroke-width:.2px;stroke-linecap:round" d="M23.813 15.875h13.229s0-7.937-6.615-7.938c-6.744 0-6.614 7.938-6.614 7.938z" id="path18113"/><path style="fill:#cfdcf5;fill-opacity:1;stroke:none;stroke-width:.2px;stroke-linecap:round" d="M50.27 15.875H63.5s0-7.937-6.615-7.938c-6.744 0-6.614 7.938-6.614 7.938z" id="path18115"/><path style="fill:#f0b5b5;fill-opacity:1;stroke:none;stroke-width:.2px;stroke-linecap:round" d="M76.73 15.875v13.23s7.937 0 7.937-6.615c0-6.745-7.938-6.615-7.938-6.615z" id="path18117"/><path style="fill:#fae7e7;fill-opacity:1;stroke:none;stroke-width:.2px;stroke-linecap:round" d="M76.73 42.333v13.23s7.937 0 7.937-6.615c0-6.745-7.938-6.615-7.938-6.615z" id="path18188"/><path style="fill:#cfdcf5;fill-opacity:1;stroke:none;stroke-width:.2px;stroke-linecap:round" d="M23.813 55.563h13.229s0 7.937-6.615 7.937c-6.744 0-6.614-7.938-6.614-7.938z" id="path18190"/><path style="fill:#cfdcf5;fill-opacity:1;stroke:none;stroke-width:.2px;stroke-linecap:round" d="M50.118 55.257h13.229s0 7.937-6.615 7.937c-6.744 0-6.614-7.937-6.614-7.937z" id="path18192"/><path style="fill:#fae7e7;fill-opacity:1;stroke:none;stroke-width:.2px;stroke-linecap:round" d="M23.813 42.333V29.104s-7.938 0-7.938 6.615c0 6.744 7.938 6.614 7.938 6.614z" id="path18194"/></g><g id="g9843"><circle style="fill:gray;fill-opacity:1;stroke:none;stroke-width:.2px;stroke-dasharray:none;stroke-opacity:1" id="circle811" cx="23.813" cy="55.501" r="1.385"/><circle style="fill:gray;fill-opacity:1;stroke:none;stroke-width:.2px;stroke-dasharray:none;stroke-opacity:1" id="circle1385" cx="36.98" cy="55.563" r="1.385"/><circle style="fill:gray;fill-opacity:1;stroke:none;stroke-width:.2px;stroke-dasharray:none;stroke-opacity:1" id="circle1387" cx="50.333" cy="55.563" r="1.385"/><circle style="fill:gray;fill-opacity:1;stroke:none;stroke-width:.2px;stroke-dasharray:none;stroke-opacity:1" id="circle1389" cx="63.438" cy="55.563" r="1.385"/><circle style="fill:gray;fill-opacity:1;stroke:none;stroke-width:.2px;stroke-dasharray:none;stroke-opacity:1" id="circle2915" cx="76.729" cy="55.501" r="1.385"/><circle style="fill:gray;fill-opacity:1;stroke:none;stroke-width:.2px;stroke-dasharray:none;stroke-opacity:1" id="circle4441" cx="23.813" cy="42.395" r="1.385"/><circle style="fill:gray;fill-opacity:1;stroke:none;stroke-width:.2px;stroke-dasharray:none;stroke-opacity:1" id="circle4443" cx="36.98" cy="42.457" r="1.385"/><circle style="fill:gray;fill-opacity:1;stroke:none;stroke-width:.2px;stroke-dasharray:none;stroke-opacity:1" id="circle4445" cx="50.333" cy="42.457" r="1.385"/><circle style="fill:gray;fill-opacity:1;stroke:none;stroke-width:.2px;stroke-dasharray:none;stroke-opacity:1" id="circle4447" cx="63.438" cy="42.457" r="1.385"/><circle style="fill:gray;fill-opacity:1;stroke:none;stroke-width:.2px;stroke-dasharray:none;stroke-opacity:1" id="circle4449" cx="76.729" cy="42.395" r="1.385"/><circle style="fill:gray;fill-opacity:1;stroke:none;stroke-width:.2px;stroke-dasharray:none;stroke-opacity:1" id="circle4451" cx="23.874" cy="29.104" r="1.385"/><circle style="fill:gray;fill-opacity:1;stroke:none;stroke-width:.2px;stroke-dasharray:none;stroke-opacity:1" id="circle4453" cx="37.042" cy="29.166" r="1.385"/><circle style="fill:gray;fill-opacity:1;stroke:none;stroke-width:.2px;stroke-dasharray:none;stroke-opacity:1" id="circle4455" cx="50.394" cy="29.166" r="1.385"/><circle style="fill:gray;fill-opacity:1;stroke:none;stroke-width:.2px;stroke-dasharray:none;stroke-opacity:1" id="circle4457" cx="63.5" cy="29.166" r="1.385"/><circle style="fill:gray;fill-opacity:1;stroke:none;stroke-width:.2px;stroke-dasharray:none;stroke-opacity:1" id="circle4459" cx="76.791" cy="29.104" r="1.385"/><circle style="fill:gray;fill-opacity:1;stroke:none;stroke-width:.2px;stroke-dasharray:none;stroke-opacity:1" id="circle4480" cx="23.874" cy="15.875" r="1.385"/><circle style="fill:gray;fill-opacity:1;stroke:none;stroke-width:.2px;stroke-dasharray:none;stroke-opacity:1" id="circle4482" cx="37.042" cy="15.937" r="1.385"/><circle style="fill:gray;fill-opacity:1;stroke:none;stroke-width:.2px;stroke-dasharray:none;stroke-opacity:1" id="circle4484" cx="50.394" cy="15.937" r="1.385"/><circle style="fill:gray;fill-opacity:1;stroke:none;stroke-width:.2px;stroke-dasharray:none;stroke-opacity:1" id="circle4486" cx="63.5" cy="15.937" r="1.385"/><circle style="fill:gray;fill-opacity:1;stroke:none;stroke-width:.2px;stroke-dasharray:none;stroke-opacity:1" id="circle4488" cx="76.791" cy="15.875" r="1.385"/></g><circle style="fill:#1e1f84;fill-opacity:1;stroke:none;stroke-width:.2px;stroke-dasharray:none;stroke-opacity:1" id="circle1565" cx="-29.104" cy="50.209" r="1.385" transform="rotate(-90)"/><text xml:space="preserve" style="fill:#fa0b0b;fill-opacity:1;stroke:none;stroke-width:.2px;stroke-dasharray:none;stroke-opacity:1;font-size:3.175px" x="25.135" y="46.567" id="text2597"><tspan id="tspan2595" style="fill:#fa0b0b;fill-opacity:1;stroke-width:.2px" x="25.135" y="46.567">X</tspan></text><circle style="fill:#fa0b0b;fill-opacity:1;stroke:none;stroke-width:.2px;stroke-dasharray:none;stroke-opacity:1" id="circle2942" cx="76.667" cy="15.875" r="1.385"/><text xml:space="preserve" style="fill:#fa0b0b;fill-opacity:1;stroke:none;stroke-width:.2px;stroke-dasharray:none;stroke-opacity:1;font-size:3.175px" x="78.052" y="19.844" id="text2954"><tspan id="tspan2952" style="fill:#fa0b0b;fill-opacity:1;stroke-width:.2px" x="78.052" y="19.844">X</tspan></text><circle style="fill:#1e1f84;fill-opacity:1;stroke:none;stroke-width:.2px;stroke-dasharray:none;stroke-opacity:1" id="circle10618" cx="-29.104" cy="63.438" r="1.385" transform="rotate(-90)"/><circle style="fill:#1e1f84;fill-opacity:1;stroke:none;stroke-width:.2px;stroke-dasharray:none;stroke-opacity:1" id="circle10620" cx="-42.333" cy="50.333" r="1.385" transform="rotate(-90)"/><circle style="fill:#1e1f84;fill-opacity:1;stroke:none;stroke-width:.2px;stroke-dasharray:none;stroke-opacity:1" id="circle10622" cx="-42.333" cy="63.438" r="1.385" transform="rotate(-90)"/><text xml:space="preserve" style="fill:#1e1f84;fill-opacity:1;stroke:none;stroke-width:.2px;stroke-dasharray:none;stroke-opacity:1;font-size:3.175px" x="51.594" y="33.073" id="text10626"><tspan id="tspan10624" style="fill:#1e1f84;fill-opacity:1;stroke-width:.2px" x="51.594" y="33.073">Z</tspan></text><text xml:space="preserve" style="fill:#1e1f84;fill-opacity:1;stroke:none;stroke-width:.2px;stroke-dasharray:none;stroke-opacity:1;font-size:3.175px" x="51.594" y="40.481" id="text10638"><tspan id="tspan10636" style="fill:#1e1f84;fill-opacity:1;stroke-width:.2px" x="51.594" y="40.481">Z</tspan></text><circle style="fill:#fa0b0b;fill-opacity:1;stroke:none;stroke-width:.2px;stroke-dasharray:none;stroke-opacity:1" id="circle10814" cx="23.874" cy="55.563" r="1.385"/><circle style="fill:#fa0b0b;fill-opacity:1;stroke:none;stroke-width:.2px;stroke-dasharray:none;stroke-opacity:1" id="circle10816" cx="36.98" cy="55.563" r="1.385"/><circle style="fill:#fa0b0b;fill-opacity:1;stroke:none;stroke-width:.2px;stroke-dasharray:none;stroke-opacity:1" id="circle10888" cx="23.874" cy="42.333" r="1.385"/><circle style="fill:#fa0b0b;fill-opacity:1;stroke:none;stroke-width:.2px;stroke-dasharray:none;stroke-opacity:1" id="circle10890" cx="37.103" cy="42.333" r="1.385"/><text xml:space="preserve" style="fill:#fa0b0b;fill-opacity:1;stroke:none;stroke-width:.2px;stroke-dasharray:none;stroke-opacity:1;font-size:3.175px" x="33.602" y="46.567" id="text10894"><tspan id="tspan10892" style="fill:#fa0b0b;fill-opacity:1;stroke-width:.2px" x="33.602" y="46.567">X</tspan></text><text xml:space="preserve" style="fill:#fa0b0b;fill-opacity:1;stroke:none;stroke-width:.2px;stroke-dasharray:none;stroke-opacity:1;font-size:3.175px" x="33.602" y="53.975" id="text10898"><tspan id="tspan10896" style="fill:#fa0b0b;fill-opacity:1;stroke-width:.2px" x="33.602" y="53.975">X</tspan></text><text xml:space="preserve" style="fill:#fa0b0b;fill-opacity:1;stroke:none;stroke-width:.2px;stroke-dasharray:none;stroke-opacity:1;font-size:3.175px" x="25.135" y="53.975" id="text10902"><tspan id="tspan10900" style="fill:#fa0b0b;fill-opacity:1;stroke-width:.2px" x="25.135" y="53.975">X</tspan></text><circle style="fill:#1e1f84;fill-opacity:1;stroke:none;stroke-width:.2px;stroke-dasharray:none;stroke-opacity:1" id="circle2761" cx="-16.173" cy="23.774" r="1.385" transform="rotate(-90)"/><text xml:space="preserve" style="fill:#1e1f84;fill-opacity:1;stroke:none;stroke-width:.2px;stroke-dasharray:none;stroke-opacity:1;font-size:3.175px" x="25.135" y="14.552" id="text2769"><tspan id="tspan2767" style="fill:#1e1f84;fill-opacity:1;stroke-width:.2px" x="25.135" y="14.552">Z</tspan></text><circle style="fill:#1e1f84;fill-opacity:1;stroke:none;stroke-width:.2px;stroke-dasharray:none;stroke-opacity:1" id="circle11089" cx="-15.875" cy="36.98" r="1.385" transform="rotate(-90)"/><text xml:space="preserve" style="fill:#1e1f84;fill-opacity:1;stroke:none;stroke-width:.2px;stroke-dasharray:none;stroke-opacity:1;font-size:3.175px" x="33.073" y="14.552" id="text11093"><tspan id="tspan11091" style="fill:#1e1f84;fill-opacity:1;stroke-width:.2px" x="33.073" y="14.552">Z</tspan></text><circle style="fill:#fa0b0b;fill-opacity:1;stroke:none;stroke-width:.2px;stroke-dasharray:none;stroke-opacity:1" id="circle11281" cx="76.729" cy="29.042" r="1.385"/><text xml:space="preserve" style="fill:#fa0b0b;fill-opacity:1;stroke:none;stroke-width:.2px;stroke-dasharray:none;stroke-opacity:1;font-size:3.175px" x="78.052" y="27.781" id="text11285"><tspan id="tspan11283" style="fill:#fa0b0b;fill-opacity:1;stroke-width:.2px" x="78.052" y="27.781">X</tspan></text><path style="fill:#e78080;fill-opacity:1;stroke:none;stroke-width:.2px;stroke-linecap:round" d="m82.02 19.844-2.645 2.646 2.646 2.645 2.646-2.645z" id="path11987"/><path style="fill:#9193e6;fill-opacity:1;stroke:none;stroke-width:.2px;stroke-linecap:round" d="m27.781 6.615 1.323-1.323 1.323 1.323 1.323-1.323 1.323 1.323-1.323 1.322 1.323 1.323-1.323 1.323-1.323-1.323-1.323 1.323-1.323-1.323 1.323-1.322Z" id="path11989"/><text xml:space="preserve" style="fill:#1e1f84;fill-opacity:1;stroke:none;stroke-width:.2px;stroke-dasharray:none;stroke-opacity:1;font-size:3.175px" x="60.06" y="33.073" id="text18273"><tspan id="tspan18271" style="fill:#1e1f84;fill-opacity:1;stroke-width:.2px" x="60.06" y="33.073">Z</tspan></text><text xml:space="preserve" style="fill:#1e1f84;fill-opacity:1;stroke:none;stroke-width:.2px;stroke-dasharray:none;stroke-opacity:1;font-size:3.175px" x="60.06" y="40.481" id="text18277"><tspan id="tspan18275" style="fill:#1e1f84;fill-opacity:1;stroke-width:.2px" x="60.06" y="40.481">Z</tspan></text><path style="fill:#9193e6;fill-opacity:1;stroke:none;stroke-width:.2px;stroke-linecap:round" d="m54.24 34.396 1.322-1.323 1.323 1.323 1.323-1.323 1.323 1.323-1.323 1.323 1.323 1.323-1.323 1.323-1.323-1.323-1.323 1.323-1.322-1.323 1.322-1.323z" id="path18514"/><path style="fill:#e78080;fill-opacity:1;stroke:none;stroke-width:.2px;stroke-linecap:round" d="m30.427 46.302-2.646 2.646 2.646 2.646 2.646-2.646z" id="path18516"/></g></svg>