<svg width="900" height="480" viewBox="0 0 900 480" fill="none" xmlns="http://www.w3.org/2000/svg">
<rect width="900" height="480" fill="white"/>
<path d="M648 90L662.434 65H633.566L648 90ZM645.5 13V67.5H650.5V13H645.5Z" fill="#6C63FF"/>
<g clip-path="url(#clip0_14_1302)">
<path d="M725.565 298.305C724.888 292.89 724.71 287.404 725.032 281.943L725.565 272.906C722.629 279.85 723.292 288.99 725.565 298.305Z" fill="#CACACA"/>
<path d="M727.854 299.817C727.528 296.586 727.443 293.327 727.598 290.078L727.854 284.698C726.441 288.832 726.761 294.272 727.854 299.817Z" fill="#CACACA"/>
<path d="M738.03 306.469V309.493C738.029 309.733 737.948 309.963 737.805 310.133C737.662 310.303 737.469 310.399 737.266 310.4H735.995C735.961 310.4 735.928 310.408 735.897 310.423C735.866 310.438 735.838 310.46 735.815 310.488C735.791 310.516 735.772 310.55 735.759 310.587C735.747 310.623 735.74 310.663 735.74 310.702V335.496C735.739 335.736 735.659 335.966 735.516 336.136C735.373 336.306 735.179 336.402 734.977 336.403H719.461C719.259 336.403 719.065 336.308 718.922 336.137C718.779 335.967 718.698 335.737 718.698 335.496V310.702C718.698 310.622 718.671 310.546 718.623 310.489C718.576 310.432 718.511 310.4 718.444 310.4H716.917C716.715 310.4 716.521 310.304 716.378 310.134C716.235 309.964 716.154 309.734 716.154 309.493V306.469C716.154 306.35 716.174 306.232 716.212 306.122C716.25 306.012 716.307 305.912 716.378 305.828C716.448 305.743 716.533 305.676 716.625 305.631C716.718 305.585 716.817 305.562 716.917 305.562H737.266C737.469 305.563 737.662 305.659 737.805 305.829C737.948 305.999 738.029 306.229 738.03 306.469Z" fill="#F2F2F2"/>
<path d="M735.763 311.035H718.721V311.942H735.763V311.035Z" fill="#E6E6E6"/>
<path d="M735.74 324.383C730.038 327.188 724.273 327.219 718.444 324.383V317.992C724.055 315.752 730.129 315.752 735.74 317.992V324.383Z" fill="#E6E6E6"/>
<path d="M653.84 222.706C658.953 222.706 663.098 217.779 663.098 211.702C663.098 205.624 658.953 200.697 653.84 200.697C648.727 200.697 644.583 205.624 644.583 211.702C644.583 217.779 648.727 222.706 653.84 222.706Z" fill="#2F2E41"/>
<path d="M656.419 201C658.022 201 659.596 201.494 660.99 202.435C662.383 203.375 663.547 204.729 664.368 206.364C665.19 207.999 665.64 209.86 665.675 211.764C665.71 213.668 665.329 215.551 664.569 217.227C665.372 216.033 665.956 214.654 666.286 213.177C666.615 211.7 666.682 210.157 666.482 208.648C666.282 207.138 665.82 205.695 665.125 204.409C664.43 203.124 663.517 202.024 662.445 201.181C661.372 200.338 660.164 199.77 658.897 199.513C657.63 199.256 656.331 199.315 655.085 199.687C653.838 200.06 652.67 200.736 651.655 201.675C650.641 202.613 649.802 203.793 649.192 205.138C650.057 203.846 651.156 202.804 652.408 202.087C653.659 201.371 655.03 200.999 656.419 201Z" fill="#2F2E41"/>
<path d="M636.541 211.678C651.56 211.678 663.735 197.205 663.735 179.352C663.735 161.498 651.56 147.025 636.541 147.025C621.522 147.025 609.346 161.498 609.346 179.352C609.346 197.205 621.522 211.678 636.541 211.678Z" fill="#2F2E41"/>
<path d="M615.198 159.295C619.883 153.03 626.433 149.175 633.465 148.543C640.497 147.91 647.46 150.55 652.886 155.905C652.663 155.654 652.443 155.401 652.212 155.156C646.821 149.464 639.75 146.55 632.552 147.055C625.354 147.56 618.619 151.442 613.828 157.848C609.038 164.254 606.583 172.659 607.005 181.215C607.426 189.772 610.689 197.779 616.076 203.476C616.307 203.721 616.544 203.951 616.78 204.184C611.671 198.406 608.65 190.495 608.355 182.12C608.059 173.744 610.513 165.56 615.198 159.295Z" fill="#2F2E41"/>
<path d="M636.31 211.404C645.984 211.404 653.826 202.083 653.826 190.584C653.826 179.085 645.984 169.763 636.31 169.763C626.637 169.763 618.795 179.085 618.795 190.584C618.795 202.083 626.637 211.404 636.31 211.404Z" fill="#FFB8B8"/>
<path d="M645.258 217.056L626.514 218.058C626.514 218.058 628.079 229.581 617.938 230.676C607.798 231.772 598.579 228.485 594.892 236.703C591.205 244.922 592.794 274.186 592.794 274.186C592.794 274.186 599.708 303.773 605.239 308.156C610.77 312.54 659.167 306.513 659.167 306.513L679.422 276.112L678.736 252.667C678.378 240.424 668.974 231.232 658.846 233.497C658.647 233.542 658.447 233.59 658.245 233.641C658.245 233.641 656.02 231.664 649.916 228.036C646.183 225.817 645.258 217.056 645.258 217.056Z" fill="#CACACA"/>
<path d="M604.571 230.128C604.571 230.128 609.026 239.737 607.182 253.435C605.339 267.132 613.075 296.102 613.075 296.102L618.606 294.459C618.606 294.459 614.918 265.968 615.84 259.393C616.762 252.818 617.016 233.416 612.407 230.128C607.798 226.841 604.571 230.128 604.571 230.128Z" fill="#2F2E41"/>
<path d="M657.921 235.167L659.858 295.829L663.546 298.568C663.546 298.568 668.847 231.997 666.081 231.997H660.454C660.121 231.997 659.791 232.075 659.483 232.227C659.176 232.378 658.896 232.6 658.661 232.88C658.425 233.16 658.238 233.493 658.111 233.858C657.983 234.224 657.918 234.616 657.918 235.012C657.918 235.064 657.919 235.115 657.921 235.167Z" fill="#2F2E41"/>
<path d="M615.61 294.733C616.883 294.733 617.914 293.506 617.914 291.993C617.914 290.48 616.883 289.254 615.61 289.254C614.337 289.254 613.305 290.48 613.305 291.993C613.305 293.506 614.337 294.733 615.61 294.733Z" fill="#6C63FF"/>
<path d="M661.702 297.472C662.975 297.472 664.007 296.246 664.007 294.733C664.007 293.22 662.975 291.993 661.702 291.993C660.43 291.993 659.398 293.22 659.398 294.733C659.398 296.246 660.43 297.472 661.702 297.472Z" fill="#6C63FF"/>
<path d="M621.33 164.558V185.378H625.387L630.549 178.804L629.858 185.378H647.787L646.681 178.804L648.894 185.378H651.751V164.558H621.33Z" fill="#2F2E41"/>
<path d="M618.565 189.214C619.328 189.214 619.947 187.865 619.947 186.2C619.947 184.536 619.328 183.187 618.565 183.187C617.801 183.187 617.182 184.536 617.182 186.2C617.182 187.865 617.801 189.214 618.565 189.214Z" fill="#FFB8B8"/>
<path d="M654.056 189.214C654.82 189.214 655.439 187.865 655.439 186.2C655.439 184.536 654.82 183.187 654.056 183.187C653.292 183.187 652.673 184.536 652.673 186.2C652.673 187.865 653.292 189.214 654.056 189.214Z" fill="#FFB8B8"/>
<path d="M692.42 330.972V332.808C692.42 333.311 692.342 333.811 692.188 334.28C692.12 334.489 692.037 334.692 691.941 334.885C691.638 335.49 691.208 335.991 690.693 336.338C690.178 336.686 689.596 336.869 689.004 336.868H575.418C574.825 336.869 574.243 336.686 573.728 336.338C573.213 335.991 572.783 335.49 572.48 334.885C572.384 334.692 572.301 334.489 572.233 334.28C572.079 333.811 572.001 333.311 572.001 332.808V330.972C572.001 330.439 572.09 329.911 572.261 329.419C572.433 328.926 572.684 328.478 573.001 328.101C573.318 327.724 573.695 327.425 574.109 327.221C574.523 327.017 574.967 326.912 575.416 326.911H581.965V326.056C581.965 326.034 581.969 326.012 581.976 325.991C581.983 325.971 581.993 325.952 582.006 325.936C582.02 325.92 582.035 325.908 582.052 325.899C582.07 325.891 582.088 325.887 582.107 325.886H585.523C585.561 325.886 585.597 325.904 585.624 325.936C585.651 325.967 585.666 326.01 585.666 326.055V326.911H587.8V326.056C587.8 326.034 587.804 326.012 587.811 325.991C587.818 325.971 587.828 325.952 587.841 325.936C587.855 325.92 587.87 325.908 587.888 325.899C587.905 325.891 587.923 325.887 587.942 325.886H591.359C591.396 325.886 591.432 325.904 591.459 325.936C591.486 325.967 591.501 326.01 591.501 326.055V326.911H593.638V326.056C593.638 326.034 593.641 326.012 593.648 325.991C593.655 325.971 593.666 325.952 593.679 325.936C593.692 325.92 593.708 325.908 593.725 325.899C593.742 325.891 593.761 325.887 593.78 325.886H597.196C597.234 325.886 597.27 325.904 597.297 325.936C597.323 325.967 597.339 326.01 597.339 326.055V326.912H599.473V326.056C599.473 326.034 599.476 326.012 599.483 325.991C599.491 325.971 599.501 325.952 599.514 325.936C599.527 325.92 599.543 325.908 599.56 325.899C599.578 325.891 599.596 325.887 599.615 325.886H603.031C603.069 325.886 603.105 325.904 603.132 325.936C603.159 325.967 603.174 326.01 603.174 326.055V326.912H605.308V326.056C605.308 326.034 605.311 326.012 605.319 325.991C605.326 325.971 605.336 325.952 605.349 325.936C605.362 325.92 605.378 325.908 605.395 325.899C605.413 325.891 605.431 325.887 605.45 325.886H608.866C608.904 325.886 608.94 325.904 608.967 325.936C608.994 325.967 609.009 326.01 609.009 326.055V326.912H611.145V326.056C611.145 326.034 611.149 326.012 611.156 325.991C611.163 325.971 611.174 325.952 611.187 325.936C611.2 325.92 611.216 325.908 611.233 325.899C611.25 325.891 611.269 325.887 611.287 325.887H614.704C614.742 325.886 614.778 325.904 614.805 325.936C614.831 325.967 614.846 326.01 614.846 326.055V326.912H616.981V326.056C616.98 326.034 616.984 326.012 616.991 325.991C616.998 325.971 617.009 325.952 617.022 325.936C617.035 325.92 617.051 325.908 617.068 325.899C617.085 325.891 617.104 325.887 617.123 325.887H643.882C643.901 325.886 643.919 325.891 643.936 325.899C643.954 325.908 643.969 325.92 643.983 325.936C643.996 325.951 644.006 325.97 644.014 325.991C644.021 326.011 644.024 326.033 644.024 326.055V326.912H646.161V326.056C646.161 326.034 646.165 326.012 646.172 325.991C646.179 325.971 646.189 325.952 646.203 325.936C646.216 325.921 646.231 325.908 646.249 325.899C646.266 325.891 646.284 325.887 646.303 325.887H649.72C649.757 325.887 649.793 325.905 649.82 325.937C649.847 325.968 649.862 326.011 649.862 326.056V326.912H651.996V326.056C651.996 326.034 652 326.012 652.007 325.991C652.014 325.971 652.024 325.952 652.038 325.936C652.051 325.921 652.067 325.908 652.084 325.899C652.101 325.891 652.12 325.887 652.138 325.887H655.555C655.573 325.886 655.592 325.891 655.609 325.899C655.626 325.908 655.642 325.92 655.655 325.936C655.669 325.952 655.679 325.97 655.686 325.991C655.693 326.011 655.697 326.033 655.697 326.055V326.912H657.831V326.056C657.831 326.034 657.835 326.012 657.842 325.991C657.849 325.971 657.86 325.952 657.873 325.936C657.886 325.921 657.902 325.908 657.919 325.9C657.936 325.891 657.955 325.887 657.973 325.887H661.39C661.409 325.886 661.427 325.891 661.444 325.899C661.462 325.908 661.477 325.92 661.49 325.936C661.504 325.952 661.514 325.97 661.521 325.991C661.529 326.011 661.532 326.033 661.532 326.055V326.912H663.669V326.056C663.669 326.034 663.673 326.012 663.68 325.991C663.687 325.971 663.697 325.952 663.71 325.936C663.724 325.921 663.739 325.908 663.757 325.9C663.774 325.891 663.792 325.887 663.811 325.887H667.227C667.265 325.887 667.301 325.905 667.327 325.937C667.353 325.969 667.368 326.011 667.367 326.056V326.912H669.504V326.056C669.504 326.034 669.508 326.012 669.515 325.991C669.522 325.971 669.532 325.952 669.546 325.936C669.559 325.921 669.574 325.908 669.592 325.9C669.609 325.891 669.627 325.887 669.646 325.887H673.063C673.081 325.886 673.1 325.891 673.117 325.899C673.134 325.908 673.15 325.92 673.163 325.936C673.176 325.952 673.187 325.97 673.194 325.991C673.201 326.011 673.205 326.033 673.205 326.055V326.912H675.339V326.056C675.339 326.034 675.343 326.012 675.35 325.991C675.357 325.971 675.367 325.952 675.381 325.936C675.394 325.921 675.409 325.908 675.427 325.9C675.444 325.891 675.462 325.887 675.481 325.887H678.898C678.916 325.886 678.935 325.891 678.952 325.899C678.969 325.908 678.985 325.92 678.998 325.936C679.012 325.952 679.022 325.97 679.029 325.991C679.036 326.011 679.04 326.033 679.04 326.055V326.912H689.004C689.909 326.911 690.778 327.339 691.419 328.1C692.059 328.861 692.419 329.893 692.42 330.97L692.42 330.972Z" fill="#3F3D56"/>
<path d="M786 336.395H539V337H786V336.395Z" fill="#3F3D56"/>
<path d="M683.273 253.678H579.228C578.852 253.678 578.479 253.766 578.132 253.937C577.784 254.108 577.469 254.359 577.203 254.675C576.937 254.991 576.726 255.366 576.582 255.779C576.438 256.192 576.364 256.635 576.364 257.082V325.994C576.364 326.897 576.666 327.763 577.203 328.401C577.74 329.04 578.468 329.398 579.228 329.398H683.273C684.033 329.398 684.761 329.04 685.298 328.401C685.836 327.763 686.137 326.897 686.137 325.994V257.082C686.137 256.179 685.836 255.313 685.298 254.675C684.761 254.036 684.033 253.678 683.273 253.678Z" fill="#3F3D56"/>
<path d="M631.334 285.296C634.846 285.296 637.693 281.911 637.693 277.737C637.693 273.562 634.846 270.177 631.334 270.177C627.822 270.177 624.975 273.562 624.975 277.737C624.975 281.911 627.822 285.296 631.334 285.296Z" fill="#6C63FF"/>
<path d="M670.7 227.797L702.802 189.336H717.958V188.731H702.59L702.515 188.821L670.338 227.372L670.7 227.797Z" fill="#3F3D56"/>
<path d="M773.663 173.545H736.469V177.485H773.663V173.545Z" fill="#6C63FF"/>
<path d="M731.936 179.976H724.062V170.616H731.936V179.976ZM724.571 179.371H731.428V171.221H724.571L724.571 179.371Z" fill="#3F3D56"/>
<path d="M773.663 186.678H736.469V190.617H773.663V186.678Z" fill="#6C63FF"/>
<path d="M731.936 193.109H724.062V183.749H731.936V193.109ZM724.571 192.504H731.428V184.354H724.571L724.571 192.504Z" fill="#3F3D56"/>
<path d="M773.663 199.81H736.469V203.75H773.663V199.81Z" fill="#6C63FF"/>
<path d="M731.936 206.241H724.062V196.881H731.936V206.241ZM724.571 205.636H731.428V197.486H724.571L724.571 205.636Z" fill="#3F3D56"/>
</g>
<path d="M610.362 360.273H611.943V365.974C611.943 366.599 611.795 367.149 611.5 367.624C611.207 368.098 610.795 368.469 610.264 368.736C609.733 369 609.112 369.132 608.402 369.132C607.689 369.132 607.067 369 606.536 368.736C606.004 368.469 605.592 368.098 605.3 367.624C605.007 367.149 604.861 366.599 604.861 365.974V360.273H606.442V365.842C606.442 366.206 606.521 366.53 606.68 366.814C606.842 367.098 607.07 367.321 607.362 367.483C607.655 367.642 608.001 367.722 608.402 367.722C608.803 367.722 609.149 367.642 609.442 367.483C609.737 367.321 609.964 367.098 610.124 366.814C610.283 366.53 610.362 366.206 610.362 365.842V360.273ZM618.767 364.185L617.36 364.338C617.321 364.196 617.251 364.062 617.152 363.938C617.055 363.812 616.924 363.712 616.76 363.635C616.595 363.558 616.393 363.52 616.154 363.52C615.833 363.52 615.564 363.589 615.345 363.729C615.129 363.868 615.022 364.048 615.025 364.27C615.022 364.46 615.092 364.615 615.234 364.734C615.379 364.854 615.618 364.952 615.95 365.028L617.066 365.267C617.686 365.401 618.146 365.612 618.447 365.902C618.751 366.192 618.904 366.571 618.907 367.04C618.904 367.452 618.784 367.815 618.545 368.131C618.309 368.443 617.981 368.687 617.561 368.864C617.14 369.04 616.657 369.128 616.112 369.128C615.311 369.128 614.666 368.96 614.177 368.625C613.689 368.287 613.397 367.817 613.304 367.214L614.808 367.07C614.876 367.365 615.021 367.588 615.243 367.739C615.464 367.889 615.752 367.964 616.108 367.964C616.474 367.964 616.768 367.889 616.99 367.739C617.214 367.588 617.326 367.402 617.326 367.18C617.326 366.993 617.254 366.838 617.109 366.716C616.967 366.594 616.745 366.5 616.444 366.435L615.328 366.2C614.7 366.07 614.235 365.849 613.934 365.54C613.633 365.227 613.484 364.832 613.487 364.355C613.484 363.952 613.593 363.602 613.815 363.307C614.039 363.009 614.35 362.778 614.748 362.616C615.149 362.452 615.61 362.369 616.133 362.369C616.9 362.369 617.504 362.533 617.944 362.859C618.387 363.186 618.662 363.628 618.767 364.185ZM623.077 369.128C622.421 369.128 621.854 368.991 621.377 368.719C620.902 368.443 620.537 368.054 620.282 367.551C620.026 367.045 619.898 366.45 619.898 365.766C619.898 365.092 620.026 364.501 620.282 363.993C620.54 363.482 620.901 363.084 621.364 362.8C621.827 362.513 622.371 362.369 622.996 362.369C623.4 362.369 623.78 362.435 624.138 362.565C624.499 362.693 624.817 362.892 625.093 363.162C625.371 363.432 625.59 363.776 625.749 364.193C625.908 364.608 625.988 365.102 625.988 365.676V366.149H620.623V365.109H624.509C624.506 364.814 624.442 364.551 624.317 364.321C624.192 364.088 624.017 363.905 623.793 363.771C623.571 363.638 623.313 363.571 623.017 363.571C622.702 363.571 622.425 363.648 622.186 363.801C621.948 363.952 621.762 364.151 621.628 364.398C621.498 364.642 621.431 364.911 621.428 365.203V366.111C621.428 366.491 621.498 366.818 621.637 367.091C621.776 367.361 621.971 367.568 622.221 367.713C622.471 367.855 622.763 367.926 623.098 367.926C623.323 367.926 623.526 367.895 623.708 367.832C623.89 367.767 624.047 367.672 624.181 367.547C624.314 367.422 624.415 367.267 624.483 367.082L625.924 367.244C625.833 367.625 625.659 367.957 625.404 368.241C625.151 368.523 624.827 368.741 624.432 368.898C624.037 369.051 623.586 369.128 623.077 369.128ZM627.293 369V362.455H628.788V363.545H628.857C628.976 363.168 629.18 362.876 629.47 362.672C629.763 362.464 630.097 362.361 630.472 362.361C630.557 362.361 630.652 362.365 630.757 362.374C630.865 362.379 630.955 362.389 631.026 362.403V363.822C630.96 363.8 630.857 363.78 630.714 363.763C630.575 363.743 630.44 363.733 630.31 363.733C630.028 363.733 629.776 363.794 629.551 363.916C629.33 364.036 629.155 364.202 629.027 364.415C628.899 364.628 628.835 364.874 628.835 365.152V369H627.293ZM639.395 371.455V367.969H639.331C639.251 368.128 639.136 368.297 638.986 368.476C638.835 368.652 638.636 368.803 638.389 368.928C638.142 369.053 637.831 369.115 637.456 369.115C636.942 369.115 636.482 368.983 636.075 368.719C635.669 368.455 635.348 368.071 635.112 367.568C634.876 367.065 634.759 366.455 634.759 365.736C634.759 365.009 634.878 364.395 635.116 363.895C635.358 363.392 635.683 363.013 636.092 362.757C636.501 362.499 636.957 362.369 637.46 362.369C637.844 362.369 638.159 362.435 638.406 362.565C638.653 362.693 638.849 362.848 638.994 363.03C639.139 363.209 639.251 363.378 639.331 363.537H639.425V362.455H640.942V371.455H639.395ZM637.886 367.849C638.213 367.849 638.491 367.761 638.722 367.585C638.952 367.406 639.126 367.158 639.246 366.839C639.365 366.521 639.425 366.151 639.425 365.727C639.425 365.304 639.365 364.936 639.246 364.624C639.129 364.311 638.956 364.068 638.726 363.895C638.499 363.722 638.219 363.635 637.886 363.635C637.543 363.635 637.256 363.724 637.026 363.903C636.795 364.082 636.622 364.33 636.506 364.645C636.389 364.96 636.331 365.321 636.331 365.727C636.331 366.136 636.389 366.501 636.506 366.822C636.625 367.141 636.8 367.392 637.03 367.577C637.263 367.759 637.548 367.849 637.886 367.849ZM646.699 366.247V362.455H648.241V369H646.746V367.837H646.678C646.53 368.203 646.287 368.503 645.949 368.736C645.614 368.969 645.2 369.085 644.709 369.085C644.28 369.085 643.901 368.99 643.571 368.8C643.244 368.607 642.989 368.327 642.804 367.96C642.619 367.591 642.527 367.145 642.527 366.622V362.455H644.07V366.384C644.07 366.798 644.183 367.128 644.411 367.372C644.638 367.616 644.936 367.739 645.305 367.739C645.533 367.739 645.753 367.683 645.966 367.572C646.179 367.462 646.354 367.297 646.49 367.078C646.629 366.857 646.699 366.58 646.699 366.247ZM652.725 369.128C652.069 369.128 651.502 368.991 651.025 368.719C650.551 368.443 650.186 368.054 649.93 367.551C649.674 367.045 649.547 366.45 649.547 365.766C649.547 365.092 649.674 364.501 649.93 363.993C650.189 363.482 650.549 363.084 651.012 362.8C651.475 362.513 652.02 362.369 652.645 362.369C653.048 362.369 653.429 362.435 653.787 362.565C654.147 362.693 654.466 362.892 654.741 363.162C655.02 363.432 655.238 363.776 655.397 364.193C655.556 364.608 655.636 365.102 655.636 365.676V366.149H650.271V365.109H654.157C654.154 364.814 654.091 364.551 653.966 364.321C653.841 364.088 653.666 363.905 653.441 363.771C653.22 363.638 652.961 363.571 652.666 363.571C652.35 363.571 652.074 363.648 651.835 363.801C651.596 363.952 651.41 364.151 651.277 364.398C651.146 364.642 651.079 364.911 651.076 365.203V366.111C651.076 366.491 651.146 366.818 651.285 367.091C651.424 367.361 651.619 367.568 651.869 367.713C652.119 367.855 652.412 367.926 652.747 367.926C652.971 367.926 653.174 367.895 653.356 367.832C653.538 367.767 653.696 367.672 653.829 367.547C653.963 367.422 654.064 367.267 654.132 367.082L655.572 367.244C655.481 367.625 655.308 367.957 655.052 368.241C654.799 368.523 654.475 368.741 654.081 368.898C653.686 369.051 653.234 369.128 652.725 369.128ZM656.941 369V362.455H658.437V363.545H658.505C658.624 363.168 658.829 362.876 659.119 362.672C659.411 362.464 659.745 362.361 660.12 362.361C660.205 362.361 660.3 362.365 660.406 362.374C660.513 362.379 660.603 362.389 660.674 362.403V363.822C660.609 363.8 660.505 363.78 660.363 363.763C660.224 363.743 660.089 363.733 659.958 363.733C659.677 363.733 659.424 363.794 659.2 363.916C658.978 364.036 658.803 364.202 658.675 364.415C658.548 364.628 658.484 364.874 658.484 365.152V369H656.941ZM661.699 369V362.455H663.241V369H661.699ZM662.474 361.526C662.23 361.526 662.02 361.445 661.844 361.283C661.668 361.118 661.58 360.92 661.58 360.69C661.58 360.457 661.668 360.26 661.844 360.098C662.02 359.933 662.23 359.851 662.474 359.851C662.722 359.851 662.932 359.933 663.105 360.098C663.281 360.26 663.369 360.457 663.369 360.69C663.369 360.92 663.281 361.118 663.105 361.283C662.932 361.445 662.722 361.526 662.474 361.526ZM667.725 369.128C667.069 369.128 666.502 368.991 666.025 368.719C665.551 368.443 665.186 368.054 664.93 367.551C664.674 367.045 664.547 366.45 664.547 365.766C664.547 365.092 664.674 364.501 664.93 363.993C665.189 363.482 665.549 363.084 666.012 362.8C666.475 362.513 667.02 362.369 667.645 362.369C668.048 362.369 668.429 362.435 668.787 362.565C669.147 362.693 669.466 362.892 669.741 363.162C670.02 363.432 670.238 363.776 670.397 364.193C670.556 364.608 670.636 365.102 670.636 365.676V366.149H665.271V365.109H669.157C669.154 364.814 669.091 364.551 668.966 364.321C668.841 364.088 668.666 363.905 668.441 363.771C668.22 363.638 667.961 363.571 667.666 363.571C667.35 363.571 667.074 363.648 666.835 363.801C666.596 363.952 666.41 364.151 666.277 364.398C666.146 364.642 666.079 364.911 666.076 365.203V366.111C666.076 366.491 666.146 366.818 666.285 367.091C666.424 367.361 666.619 367.568 666.869 367.713C667.119 367.855 667.412 367.926 667.747 367.926C667.971 367.926 668.174 367.895 668.356 367.832C668.538 367.767 668.696 367.672 668.829 367.547C668.963 367.422 669.064 367.267 669.132 367.082L670.572 367.244C670.481 367.625 670.308 367.957 670.052 368.241C669.799 368.523 669.475 368.741 669.081 368.898C668.686 369.051 668.234 369.128 667.725 369.128ZM677.114 364.185L675.708 364.338C675.668 364.196 675.599 364.062 675.499 363.938C675.403 363.812 675.272 363.712 675.107 363.635C674.942 363.558 674.741 363.52 674.502 363.52C674.181 363.52 673.911 363.589 673.692 363.729C673.477 363.868 673.37 364.048 673.373 364.27C673.37 364.46 673.44 364.615 673.582 364.734C673.727 364.854 673.965 364.952 674.298 365.028L675.414 365.267C676.033 365.401 676.494 365.612 676.795 365.902C677.099 366.192 677.252 366.571 677.255 367.04C677.252 367.452 677.131 367.815 676.893 368.131C676.657 368.443 676.329 368.687 675.908 368.864C675.488 369.04 675.005 369.128 674.46 369.128C673.658 369.128 673.013 368.96 672.525 368.625C672.036 368.287 671.745 367.817 671.651 367.214L673.156 367.07C673.224 367.365 673.369 367.588 673.59 367.739C673.812 367.889 674.1 367.964 674.455 367.964C674.822 367.964 675.116 367.889 675.337 367.739C675.562 367.588 675.674 367.402 675.674 367.18C675.674 366.993 675.602 366.838 675.457 366.716C675.315 366.594 675.093 366.5 674.792 366.435L673.675 366.2C673.048 366.07 672.583 365.849 672.282 365.54C671.981 365.227 671.832 364.832 671.835 364.355C671.832 363.952 671.941 363.602 672.163 363.307C672.387 363.009 672.698 362.778 673.096 362.616C673.496 362.452 673.958 362.369 674.481 362.369C675.248 362.369 675.852 362.533 676.292 362.859C676.735 363.186 677.009 363.628 677.114 364.185ZM684.772 362.455V363.648H681.009V362.455H684.772ZM681.938 360.886H683.481V367.031C683.481 367.239 683.512 367.398 683.575 367.509C683.64 367.616 683.725 367.69 683.83 367.73C683.935 367.77 684.052 367.79 684.18 367.79C684.276 367.79 684.364 367.783 684.444 367.768C684.526 367.754 684.589 367.741 684.631 367.73L684.891 368.936C684.809 368.964 684.691 368.996 684.538 369.03C684.387 369.064 684.202 369.084 683.984 369.089C683.597 369.101 683.249 369.043 682.94 368.915C682.63 368.784 682.384 368.582 682.202 368.31C682.023 368.037 681.935 367.696 681.938 367.287V360.886ZM687.745 365.165V369H686.203V360.273H687.711V363.567H687.788C687.941 363.197 688.179 362.906 688.5 362.693C688.824 362.477 689.235 362.369 689.735 362.369C690.19 362.369 690.586 362.464 690.924 362.655C691.262 362.845 691.524 363.124 691.708 363.49C691.896 363.857 691.99 364.304 691.99 364.832V369H690.447V365.071C690.447 364.631 690.333 364.288 690.106 364.044C689.882 363.797 689.566 363.673 689.16 363.673C688.887 363.673 688.643 363.733 688.427 363.852C688.214 363.969 688.047 364.138 687.924 364.359C687.805 364.581 687.745 364.849 687.745 365.165ZM696.46 369.128C695.804 369.128 695.237 368.991 694.76 368.719C694.285 368.443 693.92 368.054 693.664 367.551C693.409 367.045 693.281 366.45 693.281 365.766C693.281 365.092 693.409 364.501 693.664 363.993C693.923 363.482 694.284 363.084 694.747 362.8C695.21 362.513 695.754 362.369 696.379 362.369C696.782 362.369 697.163 362.435 697.521 362.565C697.882 362.693 698.2 362.892 698.475 363.162C698.754 363.432 698.973 363.776 699.132 364.193C699.291 364.608 699.37 365.102 699.37 365.676V366.149H694.005V365.109H697.892C697.889 364.814 697.825 364.551 697.7 364.321C697.575 364.088 697.4 363.905 697.176 363.771C696.954 363.638 696.696 363.571 696.4 363.571C696.085 363.571 695.808 363.648 695.569 363.801C695.331 363.952 695.145 364.151 695.011 364.398C694.88 364.642 694.814 364.911 694.811 365.203V366.111C694.811 366.491 694.88 366.818 695.02 367.091C695.159 367.361 695.353 367.568 695.603 367.713C695.853 367.855 696.146 367.926 696.481 367.926C696.706 367.926 696.909 367.895 697.091 367.832C697.272 367.767 697.43 367.672 697.564 367.547C697.697 367.422 697.798 367.267 697.866 367.082L699.306 367.244C699.216 367.625 699.042 367.957 698.787 368.241C698.534 368.523 698.21 368.741 697.815 368.898C697.42 369.051 696.968 369.128 696.46 369.128ZM703.652 371.455V362.455H705.169V363.537H705.259C705.338 363.378 705.45 363.209 705.595 363.03C705.74 362.848 705.936 362.693 706.183 362.565C706.43 362.435 706.746 362.369 707.129 362.369C707.635 362.369 708.091 362.499 708.497 362.757C708.906 363.013 709.23 363.392 709.469 363.895C709.71 364.395 709.831 365.009 709.831 365.736C709.831 366.455 709.713 367.065 709.477 367.568C709.241 368.071 708.92 368.455 708.514 368.719C708.108 368.983 707.648 369.115 707.134 369.115C706.759 369.115 706.447 369.053 706.2 368.928C705.953 368.803 705.754 368.652 705.604 368.476C705.456 368.297 705.341 368.128 705.259 367.969H705.195V371.455H703.652ZM705.165 365.727C705.165 366.151 705.224 366.521 705.344 366.839C705.466 367.158 705.641 367.406 705.868 367.585C706.098 367.761 706.376 367.849 706.703 367.849C707.044 367.849 707.33 367.759 707.56 367.577C707.79 367.392 707.963 367.141 708.08 366.822C708.199 366.501 708.259 366.136 708.259 365.727C708.259 365.321 708.2 364.96 708.084 364.645C707.967 364.33 707.794 364.082 707.564 363.903C707.334 363.724 707.047 363.635 706.703 363.635C706.374 363.635 706.094 363.722 705.864 363.895C705.634 364.068 705.459 364.311 705.339 364.624C705.223 364.936 705.165 365.304 705.165 365.727ZM715.324 366.247V362.455H716.866V369H715.371V367.837H715.303C715.155 368.203 714.912 368.503 714.574 368.736C714.239 368.969 713.825 369.085 713.334 369.085C712.905 369.085 712.526 368.99 712.196 368.8C711.869 368.607 711.614 368.327 711.429 367.96C711.244 367.591 711.152 367.145 711.152 366.622V362.455H712.695V366.384C712.695 366.798 712.808 367.128 713.036 367.372C713.263 367.616 713.561 367.739 713.93 367.739C714.158 367.739 714.378 367.683 714.591 367.572C714.804 367.462 714.979 367.297 715.115 367.078C715.254 366.857 715.324 366.58 715.324 366.247ZM718.521 369V360.273H720.064V363.537H720.127C720.207 363.378 720.319 363.209 720.464 363.03C720.609 362.848 720.805 362.693 721.052 362.565C721.299 362.435 721.615 362.369 721.998 362.369C722.504 362.369 722.96 362.499 723.366 362.757C723.775 363.013 724.099 363.392 724.338 363.895C724.579 364.395 724.7 365.009 724.7 365.736C724.7 366.455 724.582 367.065 724.346 367.568C724.11 368.071 723.789 368.455 723.383 368.719C722.977 368.983 722.517 369.115 722.002 369.115C721.627 369.115 721.316 369.053 721.069 368.928C720.822 368.803 720.623 368.652 720.473 368.476C720.325 368.297 720.21 368.128 720.127 367.969H720.038V369H718.521ZM720.034 365.727C720.034 366.151 720.093 366.521 720.213 366.839C720.335 367.158 720.51 367.406 720.737 367.585C720.967 367.761 721.245 367.849 721.572 367.849C721.913 367.849 722.199 367.759 722.429 367.577C722.659 367.392 722.832 367.141 722.949 366.822C723.068 366.501 723.127 366.136 723.127 365.727C723.127 365.321 723.069 364.96 722.953 364.645C722.836 364.33 722.663 364.082 722.433 363.903C722.203 363.724 721.916 363.635 721.572 363.635C721.243 363.635 720.963 363.722 720.733 363.895C720.502 364.068 720.328 364.311 720.208 364.624C720.092 364.936 720.034 365.304 720.034 365.727ZM727.554 360.273V369H726.011V360.273H727.554ZM729.14 369V362.455H730.683V369H729.14ZM729.916 361.526C729.672 361.526 729.461 361.445 729.285 361.283C729.109 361.118 729.021 360.92 729.021 360.69C729.021 360.457 729.109 360.26 729.285 360.098C729.461 359.933 729.672 359.851 729.916 359.851C730.163 359.851 730.373 359.933 730.547 360.098C730.723 360.26 730.811 360.457 730.811 360.69C730.811 360.92 730.723 361.118 730.547 361.283C730.373 361.445 730.163 361.526 729.916 361.526ZM735.124 369.128C734.471 369.128 733.91 368.984 733.441 368.697C732.975 368.411 732.616 368.014 732.363 367.509C732.113 367 731.988 366.415 731.988 365.753C731.988 365.088 732.116 364.501 732.371 363.993C732.627 363.482 732.988 363.084 733.454 362.8C733.923 362.513 734.477 362.369 735.116 362.369C735.647 362.369 736.117 362.467 736.526 362.663C736.938 362.857 737.266 363.131 737.511 363.486C737.755 363.838 737.894 364.25 737.928 364.722H736.454C736.394 364.406 736.252 364.143 736.028 363.933C735.806 363.72 735.509 363.614 735.137 363.614C734.822 363.614 734.545 363.699 734.306 363.869C734.067 364.037 733.881 364.278 733.748 364.594C733.617 364.909 733.552 365.287 733.552 365.727C733.552 366.173 733.617 366.557 733.748 366.878C733.879 367.196 734.062 367.442 734.298 367.615C734.536 367.786 734.816 367.871 735.137 367.871C735.364 367.871 735.567 367.828 735.746 367.743C735.928 367.655 736.08 367.528 736.202 367.364C736.325 367.199 736.408 366.999 736.454 366.763H737.928C737.891 367.226 737.755 367.636 737.519 367.994C737.283 368.349 736.962 368.628 736.556 368.83C736.15 369.028 735.673 369.128 735.124 369.128ZM605.982 384H604.294L607.366 375.273H609.318L612.395 384H610.707L608.376 377.062H608.308L605.982 384ZM606.037 380.578H610.639V381.848H606.037V380.578ZM613.544 384V375.273H616.817C617.488 375.273 618.05 375.398 618.505 375.648C618.962 375.898 619.307 376.241 619.54 376.679C619.776 377.114 619.894 377.608 619.894 378.162C619.894 378.722 619.776 379.219 619.54 379.653C619.304 380.088 618.956 380.43 618.496 380.68C618.036 380.928 617.469 381.051 616.796 381.051H614.627V379.751H616.583C616.975 379.751 617.296 379.683 617.546 379.547C617.796 379.411 617.98 379.223 618.1 378.984C618.222 378.746 618.283 378.472 618.283 378.162C618.283 377.852 618.222 377.58 618.1 377.344C617.98 377.108 617.794 376.925 617.542 376.794C617.292 376.661 616.969 376.594 616.574 376.594H615.125V384H613.544ZM622.848 375.273V384H621.267V375.273H622.848ZM630.784 377.455V378.648H626.914V377.455H630.784ZM627.882 384V376.837C627.882 376.396 627.973 376.03 628.154 375.737C628.339 375.445 628.586 375.226 628.896 375.081C629.206 374.936 629.549 374.864 629.927 374.864C630.194 374.864 630.431 374.885 630.639 374.928C630.846 374.97 631 375.009 631.099 375.043L630.792 376.236C630.727 376.216 630.645 376.196 630.545 376.176C630.446 376.153 630.335 376.142 630.213 376.142C629.926 376.142 629.723 376.212 629.603 376.351C629.487 376.487 629.429 376.683 629.429 376.939V384H627.882ZM634.601 384.128C633.962 384.128 633.408 383.987 632.939 383.706C632.47 383.425 632.107 383.031 631.848 382.526C631.592 382.02 631.464 381.429 631.464 380.753C631.464 380.077 631.592 379.484 631.848 378.976C632.107 378.467 632.47 378.072 632.939 377.791C633.408 377.51 633.962 377.369 634.601 377.369C635.24 377.369 635.794 377.51 636.263 377.791C636.732 378.072 637.094 378.467 637.349 378.976C637.608 379.484 637.737 380.077 637.737 380.753C637.737 381.429 637.608 382.02 637.349 382.526C637.094 383.031 636.732 383.425 636.263 383.706C635.794 383.987 635.24 384.128 634.601 384.128ZM634.609 382.892C634.956 382.892 635.246 382.797 635.479 382.607C635.712 382.413 635.885 382.155 635.999 381.831C636.115 381.507 636.173 381.146 636.173 380.749C636.173 380.348 636.115 379.986 635.999 379.662C635.885 379.335 635.712 379.075 635.479 378.882C635.246 378.689 634.956 378.592 634.609 378.592C634.254 378.592 633.959 378.689 633.723 378.882C633.49 379.075 633.315 379.335 633.199 379.662C633.085 379.986 633.028 380.348 633.028 380.749C633.028 381.146 633.085 381.507 633.199 381.831C633.315 382.155 633.49 382.413 633.723 382.607C633.959 382.797 634.254 382.892 634.609 382.892ZM639.047 384V377.455H640.542V378.545H640.61C640.73 378.168 640.934 377.876 641.224 377.672C641.517 377.464 641.85 377.361 642.225 377.361C642.311 377.361 642.406 377.365 642.511 377.374C642.619 377.379 642.708 377.389 642.779 377.403V378.822C642.714 378.8 642.61 378.78 642.468 378.763C642.329 378.743 642.194 378.733 642.064 378.733C641.782 378.733 641.529 378.794 641.305 378.916C641.083 379.036 640.909 379.202 640.781 379.415C640.653 379.628 640.589 379.874 640.589 380.152V384H639.047ZM650.049 377.455V378.648H646.287V377.455H650.049ZM647.216 375.886H648.758V382.031C648.758 382.239 648.789 382.398 648.852 382.509C648.917 382.616 649.002 382.69 649.108 382.73C649.213 382.77 649.329 382.79 649.457 382.79C649.554 382.79 649.642 382.783 649.721 382.768C649.804 382.754 649.866 382.741 649.909 382.73L650.169 383.936C650.086 383.964 649.968 383.996 649.815 384.03C649.664 384.064 649.48 384.084 649.261 384.089C648.875 384.101 648.527 384.043 648.217 383.915C647.907 383.784 647.662 383.582 647.48 383.31C647.301 383.037 647.213 382.696 647.216 382.287V375.886ZM653.023 380.165V384H651.48V375.273H652.989V378.567H653.065C653.219 378.197 653.456 377.906 653.777 377.693C654.101 377.477 654.513 377.369 655.013 377.369C655.467 377.369 655.864 377.464 656.202 377.655C656.54 377.845 656.801 378.124 656.986 378.49C657.173 378.857 657.267 379.304 657.267 379.832V384H655.724V380.071C655.724 379.631 655.611 379.288 655.384 379.044C655.159 378.797 654.844 378.673 654.438 378.673C654.165 378.673 653.92 378.733 653.705 378.852C653.491 378.969 653.324 379.138 653.202 379.359C653.082 379.581 653.023 379.849 653.023 380.165ZM661.737 384.128C661.081 384.128 660.514 383.991 660.037 383.719C659.563 383.443 659.197 383.054 658.942 382.551C658.686 382.045 658.558 381.45 658.558 380.766C658.558 380.092 658.686 379.501 658.942 378.993C659.2 378.482 659.561 378.084 660.024 377.8C660.487 377.513 661.031 377.369 661.656 377.369C662.06 377.369 662.44 377.435 662.798 377.565C663.159 377.693 663.477 377.892 663.753 378.162C664.031 378.432 664.25 378.776 664.409 379.193C664.568 379.608 664.648 380.102 664.648 380.676V381.149H659.283V380.109H663.169C663.166 379.814 663.102 379.551 662.977 379.321C662.852 379.088 662.678 378.905 662.453 378.771C662.232 378.638 661.973 378.571 661.678 378.571C661.362 378.571 661.085 378.648 660.847 378.801C660.608 378.952 660.422 379.151 660.288 379.398C660.158 379.642 660.091 379.911 660.088 380.203V381.111C660.088 381.491 660.158 381.818 660.297 382.091C660.436 382.361 660.631 382.568 660.881 382.713C661.131 382.855 661.423 382.926 661.759 382.926C661.983 382.926 662.186 382.895 662.368 382.832C662.55 382.767 662.707 382.672 662.841 382.547C662.974 382.422 663.075 382.267 663.143 382.082L664.584 382.244C664.493 382.625 664.32 382.957 664.064 383.241C663.811 383.523 663.487 383.741 663.092 383.898C662.697 384.051 662.246 384.128 661.737 384.128ZM668.929 384V377.455H670.425V378.545H670.493C670.613 378.168 670.817 377.876 671.107 377.672C671.4 377.464 671.733 377.361 672.108 377.361C672.194 377.361 672.289 377.365 672.394 377.374C672.502 377.379 672.591 377.389 672.662 377.403V378.822C672.597 378.8 672.493 378.78 672.351 378.763C672.212 378.743 672.077 378.733 671.946 378.733C671.665 378.733 671.412 378.794 671.188 378.916C670.966 379.036 670.792 379.202 670.664 379.415C670.536 379.628 670.472 379.874 670.472 380.152V384H668.929ZM676.315 384.128C675.659 384.128 675.092 383.991 674.615 383.719C674.141 383.443 673.776 383.054 673.52 382.551C673.264 382.045 673.136 381.45 673.136 380.766C673.136 380.092 673.264 379.501 673.52 378.993C673.778 378.482 674.139 378.084 674.602 377.8C675.065 377.513 675.609 377.369 676.234 377.369C676.638 377.369 677.018 377.435 677.376 377.565C677.737 377.693 678.055 377.892 678.331 378.162C678.609 378.432 678.828 378.776 678.987 379.193C679.146 379.608 679.226 380.102 679.226 380.676V381.149H673.861V380.109H677.747C677.744 379.814 677.68 379.551 677.555 379.321C677.43 379.088 677.256 378.905 677.031 378.771C676.81 378.638 676.551 378.571 676.256 378.571C675.94 378.571 675.663 378.648 675.425 378.801C675.186 378.952 675 379.151 674.866 379.398C674.736 379.642 674.669 379.911 674.666 380.203V381.111C674.666 381.491 674.736 381.818 674.875 382.091C675.014 382.361 675.209 382.568 675.459 382.713C675.709 382.855 676.001 382.926 676.337 382.926C676.561 382.926 676.764 382.895 676.946 382.832C677.128 382.767 677.286 382.672 677.419 382.547C677.553 382.422 677.653 382.267 677.722 382.082L679.162 382.244C679.071 382.625 678.898 382.957 678.642 383.241C678.389 383.523 678.065 383.741 677.67 383.898C677.276 384.051 676.824 384.128 676.315 384.128ZM685.704 379.185L684.298 379.338C684.258 379.196 684.189 379.062 684.089 378.938C683.993 378.812 683.862 378.712 683.697 378.635C683.532 378.558 683.331 378.52 683.092 378.52C682.771 378.52 682.501 378.589 682.282 378.729C682.066 378.868 681.96 379.048 681.963 379.27C681.96 379.46 682.029 379.615 682.172 379.734C682.316 379.854 682.555 379.952 682.887 380.028L684.004 380.267C684.623 380.401 685.083 380.612 685.385 380.902C685.689 381.192 685.842 381.571 685.845 382.04C685.842 382.452 685.721 382.815 685.483 383.131C685.247 383.443 684.919 383.687 684.498 383.864C684.078 384.04 683.595 384.128 683.049 384.128C682.248 384.128 681.603 383.96 681.115 383.625C680.626 383.287 680.335 382.817 680.241 382.214L681.745 382.07C681.814 382.365 681.958 382.588 682.18 382.739C682.402 382.889 682.69 382.964 683.045 382.964C683.412 382.964 683.706 382.889 683.927 382.739C684.152 382.588 684.264 382.402 684.264 382.18C684.264 381.993 684.191 381.838 684.047 381.716C683.904 381.594 683.683 381.5 683.382 381.435L682.265 381.2C681.637 381.07 681.173 380.849 680.872 380.54C680.571 380.227 680.422 379.832 680.424 379.355C680.422 378.952 680.531 378.602 680.752 378.307C680.977 378.009 681.288 377.778 681.686 377.616C682.086 377.452 682.548 377.369 683.071 377.369C683.838 377.369 684.441 377.533 684.882 377.859C685.325 378.186 685.599 378.628 685.704 379.185ZM691.289 381.247V377.455H692.831V384H691.336V382.837H691.267C691.12 383.203 690.877 383.503 690.539 383.736C690.203 383.969 689.79 384.085 689.299 384.085C688.87 384.085 688.49 383.99 688.161 383.8C687.834 383.607 687.578 383.327 687.394 382.96C687.209 382.591 687.117 382.145 687.117 381.622V377.455H688.659V381.384C688.659 381.798 688.773 382.128 689 382.372C689.228 382.616 689.526 382.739 689.895 382.739C690.123 382.739 690.343 382.683 690.556 382.572C690.769 382.462 690.944 382.297 691.08 382.078C691.219 381.857 691.289 381.58 691.289 381.247ZM695.96 375.273V384H694.418V375.273H695.96ZM700.815 377.455V378.648H697.052V377.455H700.815ZM697.981 375.886H699.524V382.031C699.524 382.239 699.555 382.398 699.618 382.509C699.683 382.616 699.768 382.69 699.873 382.73C699.978 382.77 700.095 382.79 700.223 382.79C700.319 382.79 700.407 382.783 700.487 382.768C700.569 382.754 700.632 382.741 700.674 382.73L700.934 383.936C700.852 383.964 700.734 383.996 700.581 384.03C700.43 384.064 700.245 384.084 700.027 384.089C699.64 384.101 699.292 384.043 698.983 383.915C698.673 383.784 698.427 383.582 698.245 383.31C698.066 383.037 697.978 382.696 697.981 382.287V375.886ZM707.185 379.185L705.778 379.338C705.739 379.196 705.669 379.062 705.57 378.938C705.473 378.812 705.342 378.712 705.178 378.635C705.013 378.558 704.811 378.52 704.572 378.52C704.251 378.52 703.982 378.589 703.763 378.729C703.547 378.868 703.44 379.048 703.443 379.27C703.44 379.46 703.51 379.615 703.652 379.734C703.797 379.854 704.036 379.952 704.368 380.028L705.484 380.267C706.104 380.401 706.564 380.612 706.865 380.902C707.169 381.192 707.322 381.571 707.325 382.04C707.322 382.452 707.202 382.815 706.963 383.131C706.727 383.443 706.399 383.687 705.979 383.864C705.558 384.04 705.075 384.128 704.53 384.128C703.729 384.128 703.084 383.96 702.595 383.625C702.107 383.287 701.815 382.817 701.722 382.214L703.226 382.07C703.294 382.365 703.439 382.588 703.661 382.739C703.882 382.889 704.17 382.964 704.526 382.964C704.892 382.964 705.186 382.889 705.408 382.739C705.632 382.588 705.744 382.402 705.744 382.18C705.744 381.993 705.672 381.838 705.527 381.716C705.385 381.594 705.163 381.5 704.862 381.435L703.746 381.2C703.118 381.07 702.653 380.849 702.352 380.54C702.051 380.227 701.902 379.832 701.905 379.355C701.902 378.952 702.011 378.602 702.233 378.307C702.457 378.009 702.768 377.778 703.166 377.616C703.567 377.452 704.028 377.369 704.551 377.369C705.318 377.369 705.922 377.533 706.362 377.859C706.805 378.186 707.08 378.628 707.185 379.185ZM709.548 384.094C709.289 384.094 709.067 384.003 708.883 383.821C708.698 383.639 708.607 383.418 708.61 383.156C708.607 382.901 708.698 382.682 708.883 382.5C709.067 382.318 709.289 382.227 709.548 382.227C709.798 382.227 710.015 382.318 710.2 382.5C710.387 382.682 710.482 382.901 710.485 383.156C710.482 383.33 710.437 383.487 710.349 383.629C710.263 383.771 710.15 383.885 710.008 383.97C709.869 384.053 709.715 384.094 709.548 384.094Z" fill="black"/>
<circle cx="577" cy="373" r="21" fill="#6C63FF"/>
<path d="M573.709 366.818V377H571.556V368.862H571.497L569.165 370.323V368.414L571.686 366.818H573.709ZM579.813 366.679C580.337 366.679 580.84 366.767 581.324 366.942C581.812 367.118 582.246 367.398 582.627 367.783C583.011 368.167 583.315 368.678 583.537 369.314C583.762 369.947 583.876 370.724 583.88 371.646C583.88 372.511 583.782 373.283 583.586 373.962C583.394 374.638 583.117 375.214 582.756 375.688C582.395 376.161 581.959 376.523 581.449 376.771C580.938 377.017 580.368 377.139 579.738 377.139C579.059 377.139 578.459 377.008 577.939 376.746C577.418 376.481 576.999 376.122 576.681 375.668C576.366 375.21 576.175 374.696 576.109 374.126H578.232C578.315 374.498 578.489 374.786 578.754 374.991C579.019 375.194 579.347 375.295 579.738 375.295C580.401 375.295 580.905 375.006 581.25 374.43C581.594 373.85 581.768 373.056 581.772 372.048H581.702C581.55 372.347 581.344 372.603 581.086 372.819C580.827 373.031 580.531 373.195 580.196 373.311C579.864 373.427 579.511 373.485 579.137 373.485C578.537 373.485 578.002 373.344 577.531 373.062C577.06 372.781 576.689 372.393 576.417 371.899C576.146 371.405 576.01 370.842 576.01 370.209C576.006 369.526 576.164 368.918 576.482 368.384C576.8 367.851 577.244 367.433 577.814 367.131C578.388 366.826 579.054 366.676 579.813 366.679ZM579.828 368.369C579.493 368.369 579.195 368.449 578.933 368.608C578.674 368.767 578.469 368.981 578.316 369.249C578.167 369.518 578.094 369.818 578.098 370.149C578.098 370.484 578.171 370.786 578.316 371.054C578.466 371.319 578.668 371.531 578.923 371.69C579.182 371.846 579.477 371.924 579.808 371.924C580.057 371.924 580.287 371.878 580.499 371.785C580.711 371.692 580.895 371.564 581.051 371.402C581.21 371.236 581.334 371.046 581.424 370.83C581.513 370.615 581.558 370.386 581.558 370.144C581.555 369.823 581.478 369.528 581.329 369.259C581.18 368.991 580.975 368.775 580.713 368.613C580.451 368.451 580.156 368.369 579.828 368.369Z" fill="#FBFAFF"/>
<path d="M613.659 416.636C613.659 417.577 613.483 418.382 613.131 419.053C612.781 419.72 612.304 420.232 611.699 420.587C611.097 420.942 610.413 421.119 609.649 421.119C608.885 421.119 608.2 420.942 607.595 420.587C606.993 420.229 606.516 419.716 606.163 419.048C605.814 418.378 605.639 417.574 605.639 416.636C605.639 415.696 605.814 414.892 606.163 414.224C606.516 413.554 606.993 413.041 607.595 412.686C608.2 412.331 608.885 412.153 609.649 412.153C610.413 412.153 611.097 412.331 611.699 412.686C612.304 413.041 612.781 413.554 613.131 414.224C613.483 414.892 613.659 415.696 613.659 416.636ZM612.07 416.636C612.07 415.974 611.966 415.416 611.759 414.962C611.554 414.504 611.27 414.159 610.906 413.926C610.543 413.69 610.124 413.572 609.649 413.572C609.175 413.572 608.756 413.69 608.392 413.926C608.028 414.159 607.743 414.504 607.536 414.962C607.331 415.416 607.229 415.974 607.229 416.636C607.229 417.298 607.331 417.858 607.536 418.315C607.743 418.77 608.028 419.115 608.392 419.351C608.756 419.584 609.175 419.7 609.649 419.7C610.124 419.7 610.543 419.584 610.906 419.351C611.27 419.115 611.554 418.77 611.759 418.315C611.966 417.858 612.07 417.298 612.07 416.636ZM615.086 421V414.455H616.581V415.545H616.65C616.769 415.168 616.973 414.876 617.263 414.672C617.556 414.464 617.89 414.361 618.265 414.361C618.35 414.361 618.445 414.365 618.55 414.374C618.658 414.379 618.748 414.389 618.819 414.403V415.822C618.753 415.8 618.65 415.78 618.507 415.763C618.368 415.743 618.233 415.733 618.103 415.733C617.821 415.733 617.569 415.794 617.344 415.916C617.123 416.036 616.948 416.202 616.82 416.415C616.692 416.628 616.628 416.874 616.628 417.152V421H615.086ZM626.992 418.247V414.455H628.534V421H627.039V419.837H626.971C626.823 420.203 626.58 420.503 626.242 420.736C625.907 420.969 625.493 421.085 625.002 421.085C624.573 421.085 624.194 420.99 623.864 420.8C623.537 420.607 623.282 420.327 623.097 419.96C622.912 419.591 622.82 419.145 622.82 418.622V414.455H624.363V418.384C624.363 418.798 624.476 419.128 624.703 419.372C624.931 419.616 625.229 419.739 625.598 419.739C625.826 419.739 626.046 419.683 626.259 419.572C626.472 419.462 626.647 419.297 626.783 419.078C626.922 418.857 626.992 418.58 626.992 418.247ZM635.294 416.185L633.888 416.338C633.848 416.196 633.778 416.062 633.679 415.938C633.582 415.812 633.452 415.712 633.287 415.635C633.122 415.558 632.92 415.52 632.682 415.52C632.361 415.52 632.091 415.589 631.872 415.729C631.656 415.868 631.55 416.048 631.553 416.27C631.55 416.46 631.619 416.615 631.761 416.734C631.906 416.854 632.145 416.952 632.477 417.028L633.594 417.267C634.213 417.401 634.673 417.612 634.974 417.902C635.278 418.192 635.432 418.571 635.435 419.04C635.432 419.452 635.311 419.815 635.072 420.131C634.837 420.443 634.509 420.687 634.088 420.864C633.668 421.04 633.185 421.128 632.639 421.128C631.838 421.128 631.193 420.96 630.705 420.625C630.216 420.287 629.925 419.817 629.831 419.214L631.335 419.07C631.403 419.365 631.548 419.588 631.77 419.739C631.991 419.889 632.28 419.964 632.635 419.964C633.001 419.964 633.295 419.889 633.517 419.739C633.741 419.588 633.854 419.402 633.854 419.18C633.854 418.993 633.781 418.838 633.636 418.716C633.494 418.594 633.273 418.5 632.972 418.435L631.855 418.2C631.227 418.07 630.763 417.849 630.462 417.54C630.161 417.227 630.011 416.832 630.014 416.355C630.011 415.952 630.121 415.602 630.342 415.307C630.567 415.009 630.878 414.778 631.276 414.616C631.676 414.452 632.138 414.369 632.661 414.369C633.428 414.369 634.031 414.533 634.472 414.859C634.915 415.186 635.189 415.628 635.294 416.185ZM639.604 421.128C638.948 421.128 638.381 420.991 637.904 420.719C637.43 420.443 637.065 420.054 636.809 419.551C636.553 419.045 636.425 418.45 636.425 417.766C636.425 417.092 636.553 416.501 636.809 415.993C637.067 415.482 637.428 415.084 637.891 414.8C638.354 414.513 638.898 414.369 639.523 414.369C639.927 414.369 640.308 414.435 640.665 414.565C641.026 414.693 641.344 414.892 641.62 415.162C641.898 415.432 642.117 415.776 642.276 416.193C642.435 416.608 642.515 417.102 642.515 417.676V418.149H637.15V417.109H641.036C641.033 416.814 640.969 416.551 640.844 416.321C640.719 416.088 640.545 415.905 640.32 415.771C640.099 415.638 639.84 415.571 639.545 415.571C639.229 415.571 638.952 415.648 638.714 415.801C638.475 415.952 638.289 416.151 638.156 416.398C638.025 416.642 637.958 416.911 637.955 417.203V418.111C637.955 418.491 638.025 418.818 638.164 419.091C638.303 419.361 638.498 419.568 638.748 419.713C638.998 419.855 639.29 419.926 639.626 419.926C639.85 419.926 640.053 419.895 640.235 419.832C640.417 419.767 640.575 419.672 640.708 419.547C640.842 419.422 640.942 419.267 641.011 419.082L642.451 419.244C642.36 419.625 642.187 419.957 641.931 420.241C641.678 420.523 641.354 420.741 640.96 420.898C640.565 421.051 640.113 421.128 639.604 421.128ZM643.82 421V414.455H645.316V415.545H645.384C645.503 415.168 645.708 414.876 645.998 414.672C646.29 414.464 646.624 414.361 646.999 414.361C647.084 414.361 647.179 414.365 647.284 414.374C647.392 414.379 647.482 414.389 647.553 414.403V415.822C647.488 415.8 647.384 415.78 647.242 415.763C647.103 415.743 646.968 415.733 646.837 415.733C646.556 415.733 646.303 415.794 646.078 415.916C645.857 416.036 645.682 416.202 645.554 416.415C645.426 416.628 645.363 416.874 645.363 417.152V421H643.82ZM653.983 421.115C653.469 421.115 653.009 420.983 652.603 420.719C652.196 420.455 651.875 420.071 651.64 419.568C651.404 419.065 651.286 418.455 651.286 417.736C651.286 417.009 651.405 416.395 651.644 415.895C651.885 415.392 652.211 415.013 652.62 414.757C653.029 414.499 653.485 414.369 653.988 414.369C654.371 414.369 654.686 414.435 654.934 414.565C655.181 414.693 655.377 414.848 655.522 415.03C655.667 415.209 655.779 415.378 655.858 415.537H655.922V412.273H657.469V421H655.952V419.969H655.858C655.779 420.128 655.664 420.297 655.513 420.476C655.363 420.652 655.164 420.803 654.917 420.928C654.669 421.053 654.358 421.115 653.983 421.115ZM654.414 419.849C654.74 419.849 655.019 419.761 655.249 419.585C655.479 419.406 655.654 419.158 655.773 418.839C655.892 418.521 655.952 418.151 655.952 417.727C655.952 417.304 655.892 416.936 655.773 416.624C655.657 416.311 655.483 416.068 655.253 415.895C655.026 415.722 654.746 415.635 654.414 415.635C654.07 415.635 653.783 415.724 653.553 415.903C653.323 416.082 653.15 416.33 653.033 416.645C652.917 416.96 652.858 417.321 652.858 417.727C652.858 418.136 652.917 418.501 653.033 418.822C653.152 419.141 653.327 419.392 653.557 419.577C653.79 419.759 654.076 419.849 654.414 419.849ZM661.968 421.128C661.329 421.128 660.775 420.987 660.306 420.706C659.837 420.425 659.474 420.031 659.215 419.526C658.96 419.02 658.832 418.429 658.832 417.753C658.832 417.077 658.96 416.484 659.215 415.976C659.474 415.467 659.837 415.072 660.306 414.791C660.775 414.51 661.329 414.369 661.968 414.369C662.607 414.369 663.161 414.51 663.63 414.791C664.099 415.072 664.461 415.467 664.717 415.976C664.975 416.484 665.104 417.077 665.104 417.753C665.104 418.429 664.975 419.02 664.717 419.526C664.461 420.031 664.099 420.425 663.63 420.706C663.161 420.987 662.607 421.128 661.968 421.128ZM661.977 419.892C662.323 419.892 662.613 419.797 662.846 419.607C663.079 419.413 663.252 419.155 663.366 418.831C663.482 418.507 663.54 418.146 663.54 417.749C663.54 417.348 663.482 416.986 663.366 416.662C663.252 416.335 663.079 416.075 662.846 415.882C662.613 415.689 662.323 415.592 661.977 415.592C661.621 415.592 661.326 415.689 661.09 415.882C660.857 416.075 660.683 416.335 660.566 416.662C660.452 416.986 660.396 417.348 660.396 417.749C660.396 418.146 660.452 418.507 660.566 418.831C660.683 419.155 660.857 419.413 661.09 419.607C661.326 419.797 661.621 419.892 661.977 419.892ZM667.577 421L665.728 414.455H667.3L668.451 419.057H668.51L669.686 414.455H671.242L672.418 419.031H672.482L673.615 414.455H675.192L673.338 421H671.732L670.505 416.577H670.415L669.188 421H667.577ZM677.812 417.165V421H676.269V414.455H677.744V415.567H677.82C677.971 415.2 678.211 414.909 678.54 414.693C678.873 414.477 679.283 414.369 679.772 414.369C680.224 414.369 680.617 414.466 680.952 414.659C681.29 414.852 681.552 415.132 681.737 415.499C681.924 415.865 682.016 416.31 682.013 416.832V421H680.471V417.071C680.471 416.634 680.357 416.291 680.13 416.044C679.906 415.797 679.594 415.673 679.197 415.673C678.927 415.673 678.687 415.733 678.477 415.852C678.269 415.969 678.106 416.138 677.987 416.359C677.87 416.581 677.812 416.849 677.812 417.165ZM685.124 412.273V421H683.582V412.273H685.124ZM689.566 421.128C688.926 421.128 688.373 420.987 687.904 420.706C687.435 420.425 687.071 420.031 686.813 419.526C686.557 419.02 686.429 418.429 686.429 417.753C686.429 417.077 686.557 416.484 686.813 415.976C687.071 415.467 687.435 415.072 687.904 414.791C688.373 414.51 688.926 414.369 689.566 414.369C690.205 414.369 690.759 414.51 691.228 414.791C691.696 415.072 692.059 415.467 692.314 415.976C692.573 416.484 692.702 417.077 692.702 417.753C692.702 418.429 692.573 419.02 692.314 419.526C692.059 420.031 691.696 420.425 691.228 420.706C690.759 420.987 690.205 421.128 689.566 421.128ZM689.574 419.892C689.921 419.892 690.211 419.797 690.444 419.607C690.676 419.413 690.85 419.155 690.963 418.831C691.08 418.507 691.138 418.146 691.138 417.749C691.138 417.348 691.08 416.986 690.963 416.662C690.85 416.335 690.676 416.075 690.444 415.882C690.211 415.689 689.921 415.592 689.574 415.592C689.219 415.592 688.924 415.689 688.688 415.882C688.455 416.075 688.28 416.335 688.164 416.662C688.05 416.986 687.993 417.348 687.993 417.749C687.993 418.146 688.05 418.507 688.164 418.831C688.28 419.155 688.455 419.413 688.688 419.607C688.924 419.797 689.219 419.892 689.574 419.892ZM695.895 421.132C695.48 421.132 695.107 421.058 694.774 420.911C694.445 420.76 694.183 420.538 693.99 420.246C693.8 419.953 693.705 419.592 693.705 419.163C693.705 418.794 693.773 418.489 693.909 418.247C694.045 418.006 694.232 417.812 694.467 417.668C694.703 417.523 694.969 417.413 695.264 417.339C695.563 417.263 695.871 417.207 696.189 417.173C696.572 417.134 696.884 417.098 697.122 417.067C697.361 417.033 697.534 416.982 697.642 416.913C697.753 416.842 697.808 416.733 697.808 416.585V416.56C697.808 416.239 697.713 415.99 697.523 415.814C697.332 415.638 697.058 415.55 696.7 415.55C696.322 415.55 696.023 415.632 695.801 415.797C695.582 415.962 695.435 416.156 695.358 416.381L693.918 416.176C694.031 415.778 694.219 415.446 694.48 415.179C694.741 414.909 695.061 414.707 695.439 414.574C695.817 414.438 696.234 414.369 696.692 414.369C697.007 414.369 697.321 414.406 697.634 414.48C697.946 414.554 698.232 414.676 698.49 414.847C698.749 415.014 698.956 415.243 699.112 415.533C699.271 415.822 699.351 416.185 699.351 416.619V421H697.868V420.101H697.817C697.723 420.283 697.591 420.453 697.42 420.612C697.253 420.768 697.041 420.895 696.786 420.991C696.533 421.085 696.236 421.132 695.895 421.132ZM696.295 419.999C696.605 419.999 696.874 419.937 697.101 419.815C697.328 419.69 697.503 419.526 697.625 419.321C697.75 419.116 697.812 418.893 697.812 418.652V417.881C697.764 417.92 697.682 417.957 697.565 417.991C697.452 418.026 697.324 418.055 697.182 418.081C697.04 418.107 696.899 418.129 696.76 418.149C696.621 418.169 696.5 418.186 696.398 418.2C696.168 418.232 695.962 418.283 695.78 418.354C695.598 418.425 695.455 418.524 695.349 418.652C695.244 418.777 695.192 418.939 695.192 419.138C695.192 419.422 695.295 419.636 695.503 419.781C695.71 419.926 695.974 419.999 696.295 419.999ZM703.331 421.115C702.817 421.115 702.357 420.983 701.95 420.719C701.544 420.455 701.223 420.071 700.987 419.568C700.751 419.065 700.634 418.455 700.634 417.736C700.634 417.009 700.753 416.395 700.991 415.895C701.233 415.392 701.558 415.013 701.967 414.757C702.376 414.499 702.832 414.369 703.335 414.369C703.719 414.369 704.034 414.435 704.281 414.565C704.528 414.693 704.724 414.848 704.869 415.03C705.014 415.209 705.126 415.378 705.206 415.537H705.27V412.273H706.817V421H705.3V419.969H705.206C705.126 420.128 705.011 420.297 704.861 420.476C704.71 420.652 704.511 420.803 704.264 420.928C704.017 421.053 703.706 421.115 703.331 421.115ZM703.761 419.849C704.088 419.849 704.366 419.761 704.597 419.585C704.827 419.406 705.001 419.158 705.121 418.839C705.24 418.521 705.3 418.151 705.3 417.727C705.3 417.304 705.24 416.936 705.121 416.624C705.004 416.311 704.831 416.068 704.601 415.895C704.374 415.722 704.094 415.635 703.761 415.635C703.418 415.635 703.131 415.724 702.901 415.903C702.67 416.082 702.497 416.33 702.381 416.645C702.264 416.96 702.206 417.321 702.206 417.727C702.206 418.136 702.264 418.501 702.381 418.822C702.5 419.141 702.675 419.392 702.905 419.577C703.138 419.759 703.423 419.849 703.761 419.849ZM713.634 416.185L712.228 416.338C712.188 416.196 712.118 416.062 712.019 415.938C711.922 415.812 711.792 415.712 711.627 415.635C711.462 415.558 711.26 415.52 711.022 415.52C710.701 415.52 710.431 415.589 710.212 415.729C709.996 415.868 709.89 416.048 709.892 416.27C709.89 416.46 709.959 416.615 710.101 416.734C710.246 416.854 710.485 416.952 710.817 417.028L711.934 417.267C712.553 417.401 713.013 417.612 713.314 417.902C713.618 418.192 713.772 418.571 713.775 419.04C713.772 419.452 713.651 419.815 713.412 420.131C713.176 420.443 712.848 420.687 712.428 420.864C712.007 421.04 711.525 421.128 710.979 421.128C710.178 421.128 709.533 420.96 709.044 420.625C708.556 420.287 708.265 419.817 708.171 419.214L709.675 419.07C709.743 419.365 709.888 419.588 710.11 419.739C710.331 419.889 710.62 419.964 710.975 419.964C711.341 419.964 711.635 419.889 711.857 419.739C712.081 419.588 712.194 419.402 712.194 419.18C712.194 418.993 712.121 418.838 711.976 418.716C711.834 418.594 711.613 418.5 711.311 418.435L710.195 418.2C709.567 418.07 709.103 417.849 708.801 417.54C708.5 417.227 708.351 416.832 708.354 416.355C708.351 415.952 708.461 415.602 708.682 415.307C708.907 415.009 709.218 414.778 709.615 414.616C710.016 414.452 710.478 414.369 711 414.369C711.767 414.369 712.371 414.533 712.811 414.859C713.255 415.186 713.529 415.628 713.634 416.185ZM721.292 414.455V415.648H717.529V414.455H721.292ZM718.458 412.886H720V419.031C720 419.239 720.032 419.398 720.094 419.509C720.159 419.616 720.245 419.69 720.35 419.73C720.455 419.77 720.571 419.79 720.699 419.79C720.796 419.79 720.884 419.783 720.963 419.768C721.046 419.754 721.108 419.741 721.151 419.73L721.411 420.936C721.328 420.964 721.211 420.996 721.057 421.03C720.907 421.064 720.722 421.084 720.503 421.089C720.117 421.101 719.769 421.043 719.459 420.915C719.15 420.784 718.904 420.582 718.722 420.31C718.543 420.037 718.455 419.696 718.458 419.287V412.886ZM724.265 417.165V421H722.722V412.273H724.231V415.567H724.308C724.461 415.197 724.698 414.906 725.019 414.693C725.343 414.477 725.755 414.369 726.255 414.369C726.71 414.369 727.106 414.464 727.444 414.655C727.782 414.845 728.043 415.124 728.228 415.49C728.415 415.857 728.509 416.304 728.509 416.832V421H726.967V417.071C726.967 416.631 726.853 416.288 726.626 416.044C726.401 415.797 726.086 415.673 725.68 415.673C725.407 415.673 725.163 415.733 724.947 415.852C724.734 415.969 724.566 416.138 724.444 416.359C724.325 416.581 724.265 416.849 724.265 417.165ZM732.979 421.128C732.323 421.128 731.756 420.991 731.279 420.719C730.805 420.443 730.44 420.054 730.184 419.551C729.928 419.045 729.8 418.45 729.8 417.766C729.8 417.092 729.928 416.501 730.184 415.993C730.442 415.482 730.803 415.084 731.266 414.8C731.729 414.513 732.273 414.369 732.898 414.369C733.302 414.369 733.683 414.435 734.04 414.565C734.401 414.693 734.719 414.892 734.995 415.162C735.273 415.432 735.492 415.776 735.651 416.193C735.81 416.608 735.89 417.102 735.89 417.676V418.149H730.525V417.109H734.411C734.408 416.814 734.344 416.551 734.219 416.321C734.094 416.088 733.92 415.905 733.695 415.771C733.474 415.638 733.215 415.571 732.92 415.571C732.604 415.571 732.327 415.648 732.089 415.801C731.85 415.952 731.664 416.151 731.531 416.398C731.4 416.642 731.333 416.911 731.33 417.203V418.111C731.33 418.491 731.4 418.818 731.539 419.091C731.678 419.361 731.873 419.568 732.123 419.713C732.373 419.855 732.665 419.926 733.001 419.926C733.225 419.926 733.428 419.895 733.61 419.832C733.792 419.767 733.95 419.672 734.083 419.547C734.217 419.422 734.317 419.267 734.386 419.082L735.826 419.244C735.735 419.625 735.562 419.957 735.306 420.241C735.053 420.523 734.729 420.741 734.335 420.898C733.94 421.051 733.488 421.128 732.979 421.128ZM740.172 421V414.455H741.667V415.545H741.735C741.855 415.168 742.059 414.876 742.349 414.672C742.642 414.464 742.975 414.361 743.35 414.361C743.436 414.361 743.531 414.365 743.636 414.374C743.744 414.379 743.833 414.389 743.904 414.403V415.822C743.839 415.8 743.735 415.78 743.593 415.763C743.454 415.743 743.319 415.733 743.189 415.733C742.907 415.733 742.654 415.794 742.43 415.916C742.208 416.036 742.034 416.202 741.906 416.415C741.778 416.628 741.714 416.874 741.714 417.152V421H740.172ZM746.696 421.132C746.281 421.132 745.907 421.058 745.575 420.911C745.245 420.76 744.984 420.538 744.791 420.246C744.6 419.953 744.505 419.592 744.505 419.163C744.505 418.794 744.574 418.489 744.71 418.247C744.846 418.006 745.032 417.812 745.268 417.668C745.504 417.523 745.77 417.413 746.065 417.339C746.363 417.263 746.672 417.207 746.99 417.173C747.373 417.134 747.684 417.098 747.923 417.067C748.162 417.033 748.335 416.982 748.443 416.913C748.554 416.842 748.609 416.733 748.609 416.585V416.56C748.609 416.239 748.514 415.99 748.324 415.814C748.133 415.638 747.859 415.55 747.501 415.55C747.123 415.55 746.824 415.632 746.602 415.797C746.383 415.962 746.235 416.156 746.159 416.381L744.718 416.176C744.832 415.778 745.02 415.446 745.281 415.179C745.542 414.909 745.862 414.707 746.24 414.574C746.618 414.438 747.035 414.369 747.493 414.369C747.808 414.369 748.122 414.406 748.434 414.48C748.747 414.554 749.032 414.676 749.291 414.847C749.549 415.014 749.757 415.243 749.913 415.533C750.072 415.822 750.152 416.185 750.152 416.619V421H748.669V420.101H748.618C748.524 420.283 748.392 420.453 748.221 420.612C748.054 420.768 747.842 420.895 747.586 420.991C747.333 421.085 747.037 421.132 746.696 421.132ZM747.096 419.999C747.406 419.999 747.674 419.937 747.902 419.815C748.129 419.69 748.304 419.526 748.426 419.321C748.551 419.116 748.613 418.893 748.613 418.652V417.881C748.565 417.92 748.483 417.957 748.366 417.991C748.252 418.026 748.125 418.055 747.983 418.081C747.841 418.107 747.7 418.129 747.561 418.149C747.422 418.169 747.301 418.186 747.199 418.2C746.968 418.232 746.762 418.283 746.581 418.354C746.399 418.425 746.255 418.524 746.15 418.652C746.045 418.777 745.993 418.939 745.993 419.138C745.993 419.422 746.096 419.636 746.304 419.781C746.511 419.926 746.775 419.999 747.096 419.999ZM753.054 421L751.204 414.455H752.777L753.927 419.057H753.987L755.163 414.455H756.718L757.895 419.031H757.958L759.092 414.455H760.669L758.815 421H757.208L755.981 416.577H755.892L754.664 421H753.054ZM605.793 436V429.455H607.288V430.545H607.357C607.476 430.168 607.68 429.876 607.97 429.672C608.263 429.464 608.597 429.361 608.972 429.361C609.057 429.361 609.152 429.365 609.257 429.374C609.365 429.379 609.455 429.389 609.526 429.403V430.822C609.46 430.8 609.357 430.78 609.214 430.763C609.075 430.743 608.94 430.733 608.81 430.733C608.528 430.733 608.276 430.794 608.051 430.916C607.83 431.036 607.655 431.202 607.527 431.415C607.399 431.628 607.335 431.874 607.335 432.152V436H605.793ZM613.179 436.128C612.522 436.128 611.956 435.991 611.478 435.719C611.004 435.443 610.639 435.054 610.383 434.551C610.127 434.045 610 433.45 610 432.766C610 432.092 610.127 431.501 610.383 430.993C610.642 430.482 611.002 430.084 611.466 429.8C611.929 429.513 612.473 429.369 613.098 429.369C613.501 429.369 613.882 429.435 614.24 429.565C614.6 429.693 614.919 429.892 615.194 430.162C615.473 430.432 615.691 430.776 615.85 431.193C616.01 431.608 616.089 432.102 616.089 432.676V433.149H610.724V432.109H614.61C614.608 431.814 614.544 431.551 614.419 431.321C614.294 431.088 614.119 430.905 613.895 430.771C613.673 430.638 613.414 430.571 613.119 430.571C612.804 430.571 612.527 430.648 612.288 430.801C612.049 430.952 611.863 431.151 611.73 431.398C611.599 431.642 611.532 431.911 611.529 432.203V433.111C611.529 433.491 611.599 433.818 611.738 434.091C611.877 434.361 612.072 434.568 612.322 434.713C612.572 434.855 612.865 434.926 613.2 434.926C613.424 434.926 613.627 434.895 613.809 434.832C613.991 434.767 614.149 434.672 614.282 434.547C614.416 434.422 614.517 434.267 614.585 434.082L616.025 434.244C615.934 434.625 615.761 434.957 615.505 435.241C615.252 435.523 614.929 435.741 614.534 435.898C614.139 436.051 613.687 436.128 613.179 436.128ZM619.278 436.132C618.863 436.132 618.489 436.058 618.157 435.911C617.827 435.76 617.566 435.538 617.373 435.246C617.183 434.953 617.087 434.592 617.087 434.163C617.087 433.794 617.156 433.489 617.292 433.247C617.428 433.006 617.614 432.812 617.85 432.668C618.086 432.523 618.352 432.413 618.647 432.339C618.945 432.263 619.254 432.207 619.572 432.173C619.955 432.134 620.266 432.098 620.505 432.067C620.744 432.033 620.917 431.982 621.025 431.913C621.136 431.842 621.191 431.733 621.191 431.585V431.56C621.191 431.239 621.096 430.99 620.906 430.814C620.715 430.638 620.441 430.55 620.083 430.55C619.705 430.55 619.406 430.632 619.184 430.797C618.965 430.962 618.817 431.156 618.741 431.381L617.3 431.176C617.414 430.778 617.602 430.446 617.863 430.179C618.124 429.909 618.444 429.707 618.822 429.574C619.2 429.438 619.617 429.369 620.075 429.369C620.39 429.369 620.704 429.406 621.016 429.48C621.329 429.554 621.614 429.676 621.873 429.847C622.131 430.014 622.339 430.243 622.495 430.533C622.654 430.822 622.734 431.185 622.734 431.619V436H621.251V435.101H621.2C621.106 435.283 620.974 435.453 620.803 435.612C620.636 435.768 620.424 435.895 620.168 435.991C619.915 436.085 619.619 436.132 619.278 436.132ZM619.678 434.999C619.988 434.999 620.256 434.937 620.484 434.815C620.711 434.69 620.886 434.526 621.008 434.321C621.133 434.116 621.195 433.893 621.195 433.652V432.881C621.147 432.92 621.065 432.957 620.948 432.991C620.835 433.026 620.707 433.055 620.565 433.081C620.423 433.107 620.282 433.129 620.143 433.149C620.004 433.169 619.883 433.186 619.781 433.2C619.55 433.232 619.344 433.283 619.163 433.354C618.981 433.425 618.837 433.524 618.732 433.652C618.627 433.777 618.575 433.939 618.575 434.138C618.575 434.422 618.678 434.636 618.886 434.781C619.093 434.926 619.357 434.999 619.678 434.999ZM626.714 436.115C626.2 436.115 625.739 435.983 625.333 435.719C624.927 435.455 624.606 435.071 624.37 434.568C624.134 434.065 624.016 433.455 624.016 432.736C624.016 432.009 624.136 431.395 624.374 430.895C624.616 430.392 624.941 430.013 625.35 429.757C625.759 429.499 626.215 429.369 626.718 429.369C627.102 429.369 627.417 429.435 627.664 429.565C627.911 429.693 628.107 429.848 628.252 430.03C628.397 430.209 628.509 430.378 628.589 430.537H628.653V427.273H630.2V436H628.683V434.969H628.589C628.509 435.128 628.394 435.297 628.244 435.476C628.093 435.652 627.894 435.803 627.647 435.928C627.4 436.053 627.089 436.115 626.714 436.115ZM627.144 434.849C627.471 434.849 627.749 434.761 627.979 434.585C628.21 434.406 628.384 434.158 628.504 433.839C628.623 433.521 628.683 433.151 628.683 432.727C628.683 432.304 628.623 431.936 628.504 431.624C628.387 431.311 628.214 431.068 627.984 430.895C627.756 430.722 627.477 430.635 627.144 430.635C626.8 430.635 626.513 430.724 626.283 430.903C626.053 431.082 625.88 431.33 625.763 431.645C625.647 431.96 625.589 432.321 625.589 432.727C625.589 433.136 625.647 433.501 625.763 433.822C625.883 434.141 626.058 434.392 626.288 434.577C626.521 434.759 626.806 434.849 627.144 434.849ZM634.699 436.128C634.059 436.128 633.505 435.987 633.037 435.706C632.568 435.425 632.204 435.031 631.946 434.526C631.69 434.02 631.562 433.429 631.562 432.753C631.562 432.077 631.69 431.484 631.946 430.976C632.204 430.467 632.568 430.072 633.037 429.791C633.505 429.51 634.059 429.369 634.699 429.369C635.338 429.369 635.892 429.51 636.36 429.791C636.829 430.072 637.191 430.467 637.447 430.976C637.706 431.484 637.835 432.077 637.835 432.753C637.835 433.429 637.706 434.02 637.447 434.526C637.191 435.031 636.829 435.425 636.36 435.706C635.892 435.987 635.338 436.128 634.699 436.128ZM634.707 434.892C635.054 434.892 635.343 434.797 635.576 434.607C635.809 434.413 635.983 434.155 636.096 433.831C636.213 433.507 636.271 433.146 636.271 432.749C636.271 432.348 636.213 431.986 636.096 431.662C635.983 431.335 635.809 431.075 635.576 430.882C635.343 430.689 635.054 430.592 634.707 430.592C634.352 430.592 634.056 430.689 633.821 430.882C633.588 431.075 633.413 431.335 633.297 431.662C633.183 431.986 633.126 432.348 633.126 432.749C633.126 433.146 633.183 433.507 633.297 433.831C633.413 434.155 633.588 434.413 633.821 434.607C634.056 434.797 634.352 434.892 634.707 434.892ZM643.316 433.247V429.455H644.859V436H643.363V434.837H643.295C643.147 435.203 642.904 435.503 642.566 435.736C642.231 435.969 641.817 436.085 641.326 436.085C640.897 436.085 640.518 435.99 640.188 435.8C639.862 435.607 639.606 435.327 639.421 434.96C639.237 434.591 639.144 434.145 639.144 433.622V429.455H640.687V433.384C640.687 433.798 640.8 434.128 641.028 434.372C641.255 434.616 641.553 434.739 641.923 434.739C642.15 434.739 642.37 434.683 642.583 434.572C642.796 434.462 642.971 434.297 643.107 434.078C643.246 433.857 643.316 433.58 643.316 433.247ZM649.713 429.455V430.648H645.951V429.455H649.713ZM646.88 427.886H648.422V434.031C648.422 434.239 648.453 434.398 648.516 434.509C648.581 434.616 648.667 434.69 648.772 434.73C648.877 434.77 648.993 434.79 649.121 434.79C649.218 434.79 649.306 434.783 649.385 434.768C649.468 434.754 649.53 434.741 649.573 434.73L649.833 435.936C649.75 435.964 649.632 435.996 649.479 436.03C649.328 436.064 649.144 436.084 648.925 436.089C648.539 436.101 648.191 436.043 647.881 435.915C647.571 435.784 647.326 435.582 647.144 435.31C646.965 435.037 646.877 434.696 646.88 434.287V427.886ZM653.98 436V429.455H655.476V430.545H655.544C655.663 430.168 655.868 429.876 656.158 429.672C656.45 429.464 656.784 429.361 657.159 429.361C657.244 429.361 657.339 429.365 657.445 429.374C657.553 429.379 657.642 429.389 657.713 429.403V430.822C657.648 430.8 657.544 430.78 657.402 430.763C657.263 430.743 657.128 430.733 656.997 430.733C656.716 430.733 656.463 430.794 656.239 430.916C656.017 431.036 655.842 431.202 655.714 431.415C655.587 431.628 655.523 431.874 655.523 432.152V436H653.98ZM661.366 436.128C660.71 436.128 660.143 435.991 659.666 435.719C659.191 435.443 658.826 435.054 658.571 434.551C658.315 434.045 658.187 433.45 658.187 432.766C658.187 432.092 658.315 431.501 658.571 430.993C658.829 430.482 659.19 430.084 659.653 429.8C660.116 429.513 660.66 429.369 661.285 429.369C661.689 429.369 662.069 429.435 662.427 429.565C662.788 429.693 663.106 429.892 663.382 430.162C663.66 430.432 663.879 430.776 664.038 431.193C664.197 431.608 664.277 432.102 664.277 432.676V433.149H658.912V432.109H662.798C662.795 431.814 662.731 431.551 662.606 431.321C662.481 431.088 662.306 430.905 662.082 430.771C661.86 430.638 661.602 430.571 661.306 430.571C660.991 430.571 660.714 430.648 660.475 430.801C660.237 430.952 660.051 431.151 659.917 431.398C659.787 431.642 659.72 431.911 659.717 432.203V433.111C659.717 433.491 659.787 433.818 659.926 434.091C660.065 434.361 660.26 434.568 660.51 434.713C660.76 434.855 661.052 434.926 661.387 434.926C661.612 434.926 661.815 434.895 661.997 434.832C662.179 434.767 662.336 434.672 662.47 434.547C662.603 434.422 662.704 434.267 662.772 434.082L664.213 434.244C664.122 434.625 663.949 434.957 663.693 435.241C663.44 435.523 663.116 435.741 662.721 435.898C662.326 436.051 661.875 436.128 661.366 436.128ZM670.755 431.185L669.349 431.338C669.309 431.196 669.239 431.062 669.14 430.938C669.043 430.812 668.913 430.712 668.748 430.635C668.583 430.558 668.381 430.52 668.143 430.52C667.822 430.52 667.552 430.589 667.333 430.729C667.117 430.868 667.011 431.048 667.013 431.27C667.011 431.46 667.08 431.615 667.222 431.734C667.367 431.854 667.606 431.952 667.938 432.028L669.055 432.267C669.674 432.401 670.134 432.612 670.435 432.902C670.739 433.192 670.893 433.571 670.896 434.04C670.893 434.452 670.772 434.815 670.533 435.131C670.298 435.443 669.969 435.687 669.549 435.864C669.129 436.04 668.646 436.128 668.1 436.128C667.299 436.128 666.654 435.96 666.165 435.625C665.677 435.287 665.386 434.817 665.292 434.214L666.796 434.07C666.864 434.365 667.009 434.588 667.231 434.739C667.452 434.889 667.741 434.964 668.096 434.964C668.462 434.964 668.756 434.889 668.978 434.739C669.202 434.588 669.315 434.402 669.315 434.18C669.315 433.993 669.242 433.838 669.097 433.716C668.955 433.594 668.734 433.5 668.433 433.435L667.316 433.2C666.688 433.07 666.224 432.849 665.923 432.54C665.621 432.227 665.472 431.832 665.475 431.355C665.472 430.952 665.582 430.602 665.803 430.307C666.028 430.009 666.339 429.778 666.737 429.616C667.137 429.452 667.599 429.369 668.121 429.369C668.888 429.369 669.492 429.533 669.933 429.859C670.376 430.186 670.65 430.628 670.755 431.185ZM676.339 433.247V429.455H677.882V436H676.386V434.837H676.318C676.17 435.203 675.928 435.503 675.589 435.736C675.254 435.969 674.841 436.085 674.349 436.085C673.92 436.085 673.541 435.99 673.212 435.8C672.885 435.607 672.629 435.327 672.445 434.96C672.26 434.591 672.168 434.145 672.168 433.622V429.455H673.71V433.384C673.71 433.798 673.824 434.128 674.051 434.372C674.278 434.616 674.577 434.739 674.946 434.739C675.173 434.739 675.393 434.683 675.607 434.572C675.82 434.462 675.994 434.297 676.131 434.078C676.27 433.857 676.339 433.58 676.339 433.247ZM681.011 427.273V436H679.468V427.273H681.011ZM685.866 429.455V430.648H682.103V429.455H685.866ZM683.032 427.886H684.575V434.031C684.575 434.239 684.606 434.398 684.668 434.509C684.734 434.616 684.819 434.69 684.924 434.73C685.029 434.77 685.146 434.79 685.273 434.79C685.37 434.79 685.458 434.783 685.538 434.768C685.62 434.754 685.683 434.741 685.725 434.73L685.985 435.936C685.903 435.964 685.785 435.996 685.631 436.03C685.481 436.064 685.296 436.084 685.077 436.089C684.691 436.101 684.343 436.043 684.033 435.915C683.724 435.784 683.478 435.582 683.296 435.31C683.117 435.037 683.029 434.696 683.032 434.287V427.886ZM692.235 431.185L690.829 431.338C690.789 431.196 690.72 431.062 690.62 430.938C690.524 430.812 690.393 430.712 690.228 430.635C690.064 430.558 689.862 430.52 689.623 430.52C689.302 430.52 689.032 430.589 688.814 430.729C688.598 430.868 688.491 431.048 688.494 431.27C688.491 431.46 688.561 431.615 688.703 431.734C688.848 431.854 689.086 431.952 689.419 432.028L690.535 432.267C691.154 432.401 691.615 432.612 691.916 432.902C692.22 433.192 692.373 433.571 692.376 434.04C692.373 434.452 692.252 434.815 692.014 435.131C691.778 435.443 691.45 435.687 691.029 435.864C690.609 436.04 690.126 436.128 689.581 436.128C688.779 436.128 688.135 435.96 687.646 435.625C687.157 435.287 686.866 434.817 686.772 434.214L688.277 434.07C688.345 434.365 688.49 434.588 688.711 434.739C688.933 434.889 689.221 434.964 689.576 434.964C689.943 434.964 690.237 434.889 690.458 434.739C690.683 434.588 690.795 434.402 690.795 434.18C690.795 433.993 690.723 433.838 690.578 433.716C690.436 433.594 690.214 433.5 689.913 433.435L688.797 433.2C688.169 433.07 687.704 432.849 687.403 432.54C687.102 432.227 686.953 431.832 686.956 431.355C686.953 430.952 687.062 430.602 687.284 430.307C687.508 430.009 687.819 429.778 688.217 429.616C688.618 429.452 689.079 429.369 689.602 429.369C690.369 429.369 690.973 429.533 691.413 429.859C691.856 430.186 692.13 430.628 692.235 431.185ZM699.94 429.455V430.648H696.071V429.455H699.94ZM697.038 436V428.837C697.038 428.396 697.129 428.03 697.311 427.737C697.495 427.445 697.743 427.226 698.052 427.081C698.362 426.936 698.706 426.864 699.083 426.864C699.35 426.864 699.588 426.885 699.795 426.928C700.002 426.97 700.156 427.009 700.255 427.043L699.949 428.236C699.883 428.216 699.801 428.196 699.701 428.176C699.602 428.153 699.491 428.142 699.369 428.142C699.082 428.142 698.879 428.212 698.76 428.351C698.643 428.487 698.585 428.683 698.585 428.939V436H697.038ZM701.148 436V429.455H702.644V430.545H702.712C702.831 430.168 703.036 429.876 703.326 429.672C703.618 429.464 703.952 429.361 704.327 429.361C704.412 429.361 704.507 429.365 704.613 429.374C704.721 429.379 704.81 429.389 704.881 429.403V430.822C704.816 430.8 704.712 430.78 704.57 430.763C704.431 430.743 704.296 430.733 704.165 430.733C703.884 430.733 703.631 430.794 703.407 430.916C703.185 431.036 703.01 431.202 702.882 431.415C702.755 431.628 702.691 431.874 702.691 432.152V436H701.148ZM708.491 436.128C707.852 436.128 707.298 435.987 706.83 435.706C706.361 435.425 705.997 435.031 705.739 434.526C705.483 434.02 705.355 433.429 705.355 432.753C705.355 432.077 705.483 431.484 705.739 430.976C705.997 430.467 706.361 430.072 706.83 429.791C707.298 429.51 707.852 429.369 708.491 429.369C709.131 429.369 709.685 429.51 710.153 429.791C710.622 430.072 710.984 430.467 711.24 430.976C711.499 431.484 711.628 432.077 711.628 432.753C711.628 433.429 711.499 434.02 711.24 434.526C710.984 435.031 710.622 435.425 710.153 435.706C709.685 435.987 709.131 436.128 708.491 436.128ZM708.5 434.892C708.847 434.892 709.136 434.797 709.369 434.607C709.602 434.413 709.776 434.155 709.889 433.831C710.006 433.507 710.064 433.146 710.064 432.749C710.064 432.348 710.006 431.986 709.889 431.662C709.776 431.335 709.602 431.075 709.369 430.882C709.136 430.689 708.847 430.592 708.5 430.592C708.145 430.592 707.849 430.689 707.614 430.882C707.381 431.075 707.206 431.335 707.089 431.662C706.976 431.986 706.919 432.348 706.919 432.749C706.919 433.146 706.976 433.507 707.089 433.831C707.206 434.155 707.381 434.413 707.614 434.607C707.849 434.797 708.145 434.892 708.5 434.892ZM712.937 436V429.455H714.412V430.567H714.488C714.625 430.192 714.85 429.899 715.166 429.689C715.481 429.476 715.858 429.369 716.295 429.369C716.738 429.369 717.112 429.477 717.416 429.693C717.723 429.906 717.939 430.197 718.064 430.567H718.132C718.277 430.203 718.521 429.913 718.865 429.697C719.211 429.479 719.622 429.369 720.096 429.369C720.699 429.369 721.19 429.56 721.571 429.94C721.951 430.321 722.142 430.876 722.142 431.607V436H720.595V431.845C720.595 431.439 720.487 431.142 720.271 430.955C720.055 430.764 719.791 430.669 719.478 430.669C719.106 430.669 718.815 430.786 718.605 431.018C718.397 431.249 718.294 431.548 718.294 431.918V436H716.781V431.781C716.781 431.443 716.679 431.173 716.474 430.972C716.272 430.77 716.008 430.669 715.681 430.669C715.46 430.669 715.258 430.726 715.076 430.839C714.895 430.95 714.75 431.108 714.642 431.312C714.534 431.514 714.48 431.75 714.48 432.02V436H712.937ZM605.861 451V442.273H607.403V445.537H607.467C607.547 445.378 607.659 445.209 607.804 445.03C607.949 444.848 608.145 444.693 608.392 444.565C608.639 444.435 608.955 444.369 609.338 444.369C609.844 444.369 610.3 444.499 610.706 444.757C611.115 445.013 611.439 445.392 611.678 445.895C611.919 446.395 612.04 447.009 612.04 447.736C612.04 448.455 611.922 449.065 611.686 449.568C611.45 450.071 611.129 450.455 610.723 450.719C610.317 450.983 609.857 451.115 609.342 451.115C608.967 451.115 608.656 451.053 608.409 450.928C608.162 450.803 607.963 450.652 607.812 450.476C607.665 450.297 607.55 450.128 607.467 449.969H607.378V451H605.861ZM607.374 447.727C607.374 448.151 607.433 448.521 607.553 448.839C607.675 449.158 607.849 449.406 608.077 449.585C608.307 449.761 608.585 449.849 608.912 449.849C609.253 449.849 609.538 449.759 609.768 449.577C609.999 449.392 610.172 449.141 610.288 448.822C610.408 448.501 610.467 448.136 610.467 447.727C610.467 447.321 610.409 446.96 610.293 446.645C610.176 446.33 610.003 446.082 609.773 445.903C609.543 445.724 609.256 445.635 608.912 445.635C608.582 445.635 608.303 445.722 608.072 445.895C607.842 446.068 607.668 446.311 607.548 446.624C607.432 446.936 607.374 447.304 607.374 447.727ZM615.235 451.132C614.82 451.132 614.446 451.058 614.114 450.911C613.784 450.76 613.523 450.538 613.33 450.246C613.14 449.953 613.044 449.592 613.044 449.163C613.044 448.794 613.113 448.489 613.249 448.247C613.385 448.006 613.571 447.812 613.807 447.668C614.043 447.523 614.309 447.413 614.604 447.339C614.902 447.263 615.211 447.207 615.529 447.173C615.912 447.134 616.223 447.098 616.462 447.067C616.701 447.033 616.874 446.982 616.982 446.913C617.093 446.842 617.148 446.733 617.148 446.585V446.56C617.148 446.239 617.053 445.99 616.863 445.814C616.672 445.638 616.398 445.55 616.04 445.55C615.662 445.55 615.363 445.632 615.141 445.797C614.922 445.962 614.775 446.156 614.698 446.381L613.257 446.176C613.371 445.778 613.559 445.446 613.82 445.179C614.081 444.909 614.401 444.707 614.779 444.574C615.157 444.438 615.574 444.369 616.032 444.369C616.347 444.369 616.661 444.406 616.973 444.48C617.286 444.554 617.571 444.676 617.83 444.847C618.088 445.014 618.296 445.243 618.452 445.533C618.611 445.822 618.691 446.185 618.691 446.619V451H617.208V450.101H617.157C617.063 450.283 616.931 450.453 616.76 450.612C616.593 450.768 616.381 450.895 616.125 450.991C615.873 451.085 615.576 451.132 615.235 451.132ZM615.635 449.999C615.945 449.999 616.213 449.937 616.441 449.815C616.668 449.69 616.843 449.526 616.965 449.321C617.09 449.116 617.152 448.893 617.152 448.652V447.881C617.104 447.92 617.022 447.957 616.905 447.991C616.792 448.026 616.664 448.055 616.522 448.081C616.38 448.107 616.239 448.129 616.1 448.149C615.961 448.169 615.84 448.186 615.738 448.2C615.507 448.232 615.301 448.283 615.12 448.354C614.938 448.425 614.794 448.524 614.689 448.652C614.584 448.777 614.532 448.939 614.532 449.138C614.532 449.422 614.635 449.636 614.843 449.781C615.05 449.926 615.314 449.999 615.635 449.999ZM623.097 451.128C622.444 451.128 621.882 450.984 621.414 450.697C620.948 450.411 620.588 450.014 620.336 449.509C620.086 449 619.961 448.415 619.961 447.753C619.961 447.088 620.088 446.501 620.344 445.993C620.6 445.482 620.961 445.084 621.426 444.8C621.895 444.513 622.449 444.369 623.088 444.369C623.62 444.369 624.09 444.467 624.499 444.663C624.911 444.857 625.239 445.131 625.483 445.486C625.728 445.838 625.867 446.25 625.901 446.722H624.426C624.367 446.406 624.225 446.143 624 445.933C623.779 445.72 623.482 445.614 623.11 445.614C622.794 445.614 622.517 445.699 622.279 445.869C622.04 446.037 621.854 446.278 621.721 446.594C621.59 446.909 621.525 447.287 621.525 447.727C621.525 448.173 621.59 448.557 621.721 448.878C621.851 449.196 622.034 449.442 622.27 449.615C622.509 449.786 622.789 449.871 623.11 449.871C623.337 449.871 623.54 449.828 623.719 449.743C623.901 449.655 624.053 449.528 624.175 449.364C624.297 449.199 624.381 448.999 624.426 448.763H625.901C625.864 449.226 625.728 449.636 625.492 449.994C625.256 450.349 624.935 450.628 624.529 450.83C624.123 451.028 623.645 451.128 623.097 451.128ZM628.574 448.946L628.57 447.084H628.817L631.169 444.455H632.972L630.078 447.676H629.759L628.574 448.946ZM627.168 451V442.273H628.71V451H627.168ZM631.276 451L629.145 448.021L630.185 446.935L633.121 451H631.276ZM636.628 451.128C635.972 451.128 635.405 450.991 634.928 450.719C634.453 450.443 634.088 450.054 633.832 449.551C633.577 449.045 633.449 448.45 633.449 447.766C633.449 447.092 633.577 446.501 633.832 445.993C634.091 445.482 634.452 445.084 634.915 444.8C635.378 444.513 635.922 444.369 636.547 444.369C636.95 444.369 637.331 444.435 637.689 444.565C638.05 444.693 638.368 444.892 638.643 445.162C638.922 445.432 639.141 445.776 639.3 446.193C639.459 446.608 639.538 447.102 639.538 447.676V448.149H634.173V447.109H638.06C638.057 446.814 637.993 446.551 637.868 446.321C637.743 446.088 637.568 445.905 637.344 445.771C637.122 445.638 636.864 445.571 636.568 445.571C636.253 445.571 635.976 445.648 635.737 445.801C635.499 445.952 635.313 446.151 635.179 446.398C635.048 446.642 634.982 446.911 634.979 447.203V448.111C634.979 448.491 635.048 448.818 635.188 449.091C635.327 449.361 635.521 449.568 635.771 449.713C636.021 449.855 636.314 449.926 636.649 449.926C636.874 449.926 637.077 449.895 637.259 449.832C637.44 449.767 637.598 449.672 637.732 449.547C637.865 449.422 637.966 449.267 638.034 449.082L639.474 449.244C639.384 449.625 639.21 449.957 638.955 450.241C638.702 450.523 638.378 450.741 637.983 450.898C637.588 451.051 637.136 451.128 636.628 451.128ZM642.386 447.165V451H640.843V444.455H642.318V445.567H642.395C642.545 445.2 642.785 444.909 643.115 444.693C643.447 444.477 643.858 444.369 644.346 444.369C644.798 444.369 645.191 444.466 645.527 444.659C645.865 444.852 646.126 445.132 646.311 445.499C646.498 445.865 646.591 446.31 646.588 446.832V451H645.045V447.071C645.045 446.634 644.931 446.291 644.704 446.044C644.48 445.797 644.169 445.673 643.771 445.673C643.501 445.673 643.261 445.733 643.051 445.852C642.843 445.969 642.68 446.138 642.561 446.359C642.444 446.581 642.386 446.849 642.386 447.165ZM650.585 451.115C650.071 451.115 649.61 450.983 649.204 450.719C648.798 450.455 648.477 450.071 648.241 449.568C648.005 449.065 647.887 448.455 647.887 447.736C647.887 447.009 648.007 446.395 648.245 445.895C648.487 445.392 648.812 445.013 649.221 444.757C649.63 444.499 650.086 444.369 650.589 444.369C650.973 444.369 651.288 444.435 651.535 444.565C651.782 444.693 651.978 444.848 652.123 445.03C652.268 445.209 652.38 445.378 652.46 445.537H652.524V442.273H654.071V451H652.554V449.969H652.46C652.38 450.128 652.265 450.297 652.115 450.476C651.964 450.652 651.765 450.803 651.518 450.928C651.271 451.053 650.96 451.115 650.585 451.115ZM651.015 449.849C651.342 449.849 651.62 449.761 651.85 449.585C652.081 449.406 652.255 449.158 652.375 448.839C652.494 448.521 652.554 448.151 652.554 447.727C652.554 447.304 652.494 446.936 652.375 446.624C652.258 446.311 652.085 446.068 651.855 445.895C651.627 445.722 651.348 445.635 651.015 445.635C650.672 445.635 650.385 445.724 650.154 445.903C649.924 446.082 649.751 446.33 649.635 446.645C649.518 446.96 649.46 447.321 649.46 447.727C649.46 448.136 649.518 448.501 649.635 448.822C649.754 449.141 649.929 449.392 650.159 449.577C650.392 449.759 650.677 449.849 651.015 449.849ZM656.665 451.094C656.406 451.094 656.185 451.003 656 450.821C655.815 450.639 655.724 450.418 655.727 450.156C655.724 449.901 655.815 449.682 656 449.5C656.185 449.318 656.406 449.227 656.665 449.227C656.915 449.227 657.132 449.318 657.317 449.5C657.504 449.682 657.599 449.901 657.602 450.156C657.599 450.33 657.554 450.487 657.466 450.629C657.381 450.771 657.267 450.885 657.125 450.97C656.986 451.053 656.832 451.094 656.665 451.094Z" fill="black"/>
<circle cx="578" cy="426" r="21" fill="#6C63FF"/>
<path d="M570.297 428V426.67L573.404 423.794C573.668 423.538 573.89 423.308 574.069 423.104C574.25 422.899 574.388 422.699 574.482 422.503C574.576 422.304 574.623 422.089 574.623 421.859C574.623 421.604 574.564 421.384 574.448 421.199C574.331 421.011 574.172 420.868 573.971 420.768C573.769 420.666 573.54 420.615 573.284 420.615C573.017 420.615 572.784 420.669 572.586 420.777C572.387 420.885 572.233 421.04 572.125 421.241C572.017 421.443 571.963 421.683 571.963 421.962H570.212C570.212 421.391 570.341 420.895 570.6 420.474C570.858 420.054 571.221 419.729 571.686 419.499C572.152 419.268 572.689 419.153 573.297 419.153C573.922 419.153 574.466 419.264 574.929 419.486C575.395 419.705 575.757 420.009 576.016 420.398C576.275 420.787 576.404 421.233 576.404 421.736C576.404 422.065 576.338 422.391 576.208 422.712C576.08 423.033 575.851 423.389 575.522 423.781C575.192 424.17 574.728 424.638 574.128 425.183L572.854 426.432V426.491H576.519V428H570.297ZM581.278 428.192C580.545 428.189 579.914 428.009 579.386 427.651C578.86 427.293 578.455 426.774 578.171 426.095C577.89 425.416 577.751 424.599 577.754 423.645C577.754 422.693 577.894 421.882 578.175 421.212C578.46 420.541 578.864 420.031 579.39 419.682C579.918 419.33 580.548 419.153 581.278 419.153C582.008 419.153 582.636 419.33 583.161 419.682C583.69 420.034 584.096 420.545 584.38 421.216C584.664 421.884 584.805 422.693 584.802 423.645C584.802 424.602 584.66 425.42 584.376 426.099C584.094 426.778 583.691 427.297 583.165 427.655C582.64 428.013 582.011 428.192 581.278 428.192ZM581.278 426.662C581.778 426.662 582.177 426.411 582.475 425.908C582.773 425.405 582.921 424.651 582.918 423.645C582.918 422.983 582.85 422.432 582.714 421.991C582.58 421.551 582.39 421.22 582.143 420.999C581.898 420.777 581.61 420.666 581.278 420.666C580.781 420.666 580.383 420.915 580.085 421.412C579.786 421.909 579.636 422.653 579.633 423.645C579.633 424.315 579.7 424.875 579.833 425.324C579.969 425.77 580.161 426.105 580.408 426.33C580.656 426.551 580.945 426.662 581.278 426.662Z" fill="#FBFAFF"/>
<defs>
<clipPath id="clip0_14_1302">
<rect width="247" height="190" fill="white" transform="translate(539 147)"/>
</clipPath>
</defs>
</svg>
